%
M48
M72
T01C0.0236
T02C0.0250
T03C0.0276
T04C0.0315
T05C0.0320
T06C0.0354
T07C0.0400
T08C0.0748
%
T01
X2300Y7375
X2300Y8475
X3300Y13050
X4200Y13025
X4975Y17300
X5725Y18350
X2225Y18350
X2225Y17350
X9800Y21175
X9900Y23725
X9800Y24525
X9850Y26925
X4225Y25100
X3150Y25600
X9900Y9025
X9900Y6775
T02
X9850Y18975
T03
X3825Y9350
X3825Y7350
T04
X4408Y14395
X3935Y14710
X4408Y15025
X3935Y15340
X4408Y15655
T05
X5725Y14475
X5725Y13475
X5725Y12475
X5725Y11475
X5725Y10475
X5725Y9475
X5725Y8475
X5725Y7475
X5725Y6475
X5725Y5475
X5725Y4475
X5725Y3475
X5725Y2475
X5725Y1475
X8725Y1475
X8725Y2475
X8725Y3475
X8725Y4475
X8725Y5475
X8725Y6475
X8725Y7475
X8725Y8475
X8725Y9475
X8725Y10475
X8725Y11475
X8725Y12475
X8725Y13475
X8725Y14475
T06
X1925Y24734
X1925Y25916
T07
X1550Y1250
X2550Y1250
X2550Y2250
X2550Y3250
X1550Y3250
X1550Y2250
X1550Y4250
X2550Y4250
X2525Y5275
X1660Y19670
X3440Y19670
X3440Y22230
X1660Y22230
X1800Y28700
X2800Y28700
X5675Y28700
X6675Y28700
X7675Y28700
T08
X2400Y16462
X2400Y13588
M30
