G75*
%MOIN*%
%OFA0B0*%
%FSLAX24Y24*%
%IPPOS*%
%LPD*%
%AMOC8*
5,1,8,0,0,1.08239X$1,22.5*
%
%ADD10R,0.0217X0.0472*%
%ADD11R,0.0472X0.0217*%
%ADD12R,0.0551X0.0472*%
%ADD13R,0.0630X0.0709*%
%ADD14R,0.0500X0.0579*%
%ADD15R,0.0315X0.0394*%
%ADD16R,0.0591X0.0276*%
%ADD17R,0.0709X0.0630*%
D10*
X006051Y020063D03*
X006799Y020063D03*
X006799Y021087D03*
X006425Y021087D03*
X006051Y021087D03*
D11*
X007538Y018324D03*
X007538Y017950D03*
X007538Y017576D03*
X008562Y017576D03*
X008562Y018324D03*
D12*
X011775Y018049D03*
X011775Y019231D03*
X011775Y020469D03*
X011775Y021651D03*
X011775Y022889D03*
X011775Y024071D03*
X011775Y025309D03*
X011775Y026491D03*
X011775Y027729D03*
X011775Y028911D03*
X007550Y024641D03*
X007550Y023459D03*
X011775Y016811D03*
X011775Y015629D03*
X011775Y014391D03*
X011775Y013209D03*
X011775Y011971D03*
X011775Y010789D03*
X011775Y009551D03*
X011775Y008369D03*
X011775Y007131D03*
X011775Y005949D03*
X011775Y004711D03*
X011775Y003529D03*
X011775Y002291D03*
X011775Y001109D03*
D13*
X003649Y001400D03*
X004751Y001400D03*
X009874Y001150D03*
X010976Y001150D03*
X010946Y003500D03*
X009844Y003500D03*
X009834Y005925D03*
X010936Y005925D03*
X010936Y008325D03*
X009834Y008325D03*
X009854Y010725D03*
X010956Y010725D03*
X010976Y013125D03*
X009874Y013125D03*
X009844Y015550D03*
X010946Y015550D03*
X008601Y016575D03*
X007499Y016575D03*
X006726Y015825D03*
X005624Y015825D03*
X004776Y018400D03*
X003674Y018400D03*
X007499Y019450D03*
X008601Y019450D03*
X008626Y020550D03*
X007524Y020550D03*
X007499Y022000D03*
X008601Y022000D03*
X009854Y022925D03*
X010956Y022925D03*
X010926Y025325D03*
X009824Y025325D03*
X008626Y026025D03*
X007524Y026025D03*
X006051Y024400D03*
X004949Y024400D03*
X009844Y027725D03*
X010946Y027725D03*
X010936Y020425D03*
X009834Y020425D03*
X009864Y018025D03*
X010966Y018025D03*
X004701Y012325D03*
X004701Y011350D03*
X003599Y011350D03*
X002651Y011350D03*
X001549Y011350D03*
X001549Y012350D03*
X002651Y012350D03*
X003599Y012325D03*
D14*
X004704Y022725D03*
X006396Y022725D03*
D15*
X002358Y023691D03*
X001492Y023691D03*
X001492Y026959D03*
X002358Y026959D03*
D16*
X002811Y026211D03*
X002811Y025030D03*
X002811Y024439D03*
D17*
X001600Y009526D03*
X001600Y008424D03*
X001575Y007376D03*
X001575Y006274D03*
M02*
