G75*
%MOIN*%
%OFA0B0*%
%FSLAX24Y24*%
%IPPOS*%
%LPD*%
%AMOC8*
5,1,8,0,0,1.08239X$1,22.5*
%
%ADD10C,0.0060*%
%ADD11C,0.0050*%
D10*
X001050Y001000D02*
X001050Y001500D01*
X001300Y001750D01*
X001050Y002000D01*
X001050Y002500D01*
X001300Y002750D01*
X001050Y003000D01*
X001050Y003500D01*
X001300Y003750D01*
X001050Y004000D01*
X001050Y004500D01*
X001300Y004750D01*
X002800Y004750D01*
X003050Y004500D01*
X003050Y004000D01*
X002800Y003750D01*
X003050Y003500D01*
X003050Y003000D01*
X002800Y002750D01*
X003050Y002500D01*
X003050Y002000D01*
X002800Y001750D01*
X003050Y001500D01*
X003050Y001000D01*
X002800Y000750D01*
X001300Y000750D01*
X001050Y001000D01*
D11*
X000924Y013490D02*
X004467Y013490D01*
X004467Y016560D01*
X000924Y016560D01*
X000924Y013490D01*
X001120Y013844D02*
X001120Y014238D01*
X002892Y014434D01*
X003089Y014730D02*
X001120Y014533D01*
X001120Y013844D02*
X002892Y013647D01*
X003089Y014730D02*
X003089Y015320D01*
X001120Y015517D01*
X001120Y015812D02*
X002695Y015616D01*
X002695Y016403D02*
X001120Y016206D01*
X001120Y015812D01*
M02*
