G75*
%MOIN*%
%OFA0B0*%
%FSLAX24Y24*%
%IPPOS*%
%LPD*%
%AMOC8*
5,1,8,0,0,1.08239X$1,22.5*
%
%ADD10C,0.0080*%
%ADD11C,0.0050*%
%ADD12C,0.0060*%
D10*
X002275Y004775D02*
X002775Y004775D01*
X003025Y005025D01*
X003025Y005525D01*
X002775Y005775D01*
X002275Y005775D01*
X002025Y005525D01*
X002025Y005025D01*
X002275Y004775D01*
X002925Y007000D02*
X002925Y009700D01*
X002927Y009759D01*
X002933Y009817D01*
X002942Y009876D01*
X002956Y009933D01*
X002973Y009989D01*
X002994Y010044D01*
X003018Y010098D01*
X003046Y010150D01*
X003077Y010200D01*
X003111Y010248D01*
X003148Y010293D01*
X003189Y010336D01*
X003232Y010377D01*
X003277Y010414D01*
X003325Y010448D01*
X003375Y010479D01*
X003427Y010507D01*
X003481Y010531D01*
X003536Y010552D01*
X003592Y010569D01*
X003649Y010583D01*
X003708Y010592D01*
X003766Y010598D01*
X003825Y010600D01*
X003884Y010598D01*
X003942Y010592D01*
X004001Y010583D01*
X004058Y010569D01*
X004114Y010552D01*
X004169Y010531D01*
X004223Y010507D01*
X004275Y010479D01*
X004325Y010448D01*
X004373Y010414D01*
X004418Y010377D01*
X004461Y010336D01*
X004502Y010293D01*
X004539Y010248D01*
X004573Y010200D01*
X004604Y010150D01*
X004632Y010098D01*
X004656Y010044D01*
X004677Y009989D01*
X004694Y009933D01*
X004708Y009876D01*
X004717Y009817D01*
X004723Y009759D01*
X004725Y009700D01*
X004725Y007000D01*
X004723Y006941D01*
X004717Y006883D01*
X004708Y006824D01*
X004694Y006767D01*
X004677Y006711D01*
X004656Y006656D01*
X004632Y006602D01*
X004604Y006550D01*
X004573Y006500D01*
X004539Y006452D01*
X004502Y006407D01*
X004461Y006364D01*
X004418Y006323D01*
X004373Y006286D01*
X004325Y006252D01*
X004275Y006221D01*
X004223Y006193D01*
X004169Y006169D01*
X004114Y006148D01*
X004058Y006131D01*
X004001Y006117D01*
X003942Y006108D01*
X003884Y006102D01*
X003825Y006100D01*
X003766Y006102D01*
X003708Y006108D01*
X003649Y006117D01*
X003592Y006131D01*
X003536Y006148D01*
X003481Y006169D01*
X003427Y006193D01*
X003375Y006221D01*
X003325Y006252D01*
X003277Y006286D01*
X003232Y006323D01*
X003189Y006364D01*
X003148Y006407D01*
X003111Y006452D01*
X003077Y006500D01*
X003046Y006550D01*
X003018Y006602D01*
X002994Y006656D01*
X002973Y006711D01*
X002956Y006767D01*
X002942Y006824D01*
X002933Y006883D01*
X002927Y006941D01*
X002925Y007000D01*
X011381Y006934D02*
X011381Y007485D01*
X012169Y007485D01*
X012169Y006934D01*
X012011Y006658D02*
X011539Y006658D01*
X011775Y006422D01*
X012011Y006658D01*
X012051Y006422D02*
X011775Y006422D01*
X011499Y006422D01*
X011381Y006146D02*
X011381Y005595D01*
X012169Y005595D01*
X012169Y006146D01*
X012169Y005065D02*
X011381Y005065D01*
X011381Y004514D01*
X011539Y004238D02*
X011775Y004002D01*
X012011Y004238D01*
X011539Y004238D01*
X011499Y004002D02*
X011775Y004002D01*
X012051Y004002D01*
X012169Y003726D02*
X012169Y003175D01*
X011381Y003175D01*
X011381Y003726D01*
X012169Y004514D02*
X012169Y005065D01*
X012169Y002645D02*
X011381Y002645D01*
X011381Y002094D01*
X011539Y001818D02*
X011775Y001582D01*
X012011Y001818D01*
X011539Y001818D01*
X011499Y001582D02*
X011775Y001582D01*
X012051Y001582D01*
X012169Y001306D02*
X012169Y000755D01*
X011381Y000755D01*
X011381Y001306D01*
X012169Y002094D02*
X012169Y002645D01*
X012169Y008015D02*
X011381Y008015D01*
X011381Y008566D01*
X011499Y008842D02*
X011775Y008842D01*
X011539Y009078D01*
X012011Y009078D01*
X011775Y008842D01*
X012051Y008842D01*
X012169Y008566D02*
X012169Y008015D01*
X012169Y009354D02*
X012169Y009905D01*
X011381Y009905D01*
X011381Y009354D01*
X011381Y010435D02*
X011381Y010986D01*
X011499Y011262D02*
X011775Y011262D01*
X011539Y011498D01*
X012011Y011498D01*
X011775Y011262D01*
X012051Y011262D01*
X012169Y010986D02*
X012169Y010435D01*
X011381Y010435D01*
X011381Y011774D02*
X011381Y012325D01*
X012169Y012325D01*
X012169Y011774D01*
X012169Y012855D02*
X011381Y012855D01*
X011381Y013406D01*
X011499Y013682D02*
X011775Y013682D01*
X011539Y013918D01*
X012011Y013918D01*
X011775Y013682D01*
X012051Y013682D01*
X012169Y013406D02*
X012169Y012855D01*
X012169Y014194D02*
X012169Y014745D01*
X011381Y014745D01*
X011381Y014194D01*
X011381Y015275D02*
X011381Y015826D01*
X011499Y016102D02*
X011775Y016102D01*
X011539Y016338D01*
X012011Y016338D01*
X011775Y016102D01*
X012051Y016102D01*
X012169Y015826D02*
X012169Y015275D01*
X011381Y015275D01*
X011381Y016614D02*
X011381Y017165D01*
X012169Y017165D01*
X012169Y016614D01*
X012169Y017695D02*
X011381Y017695D01*
X011381Y018246D01*
X011499Y018522D02*
X011775Y018522D01*
X011539Y018758D01*
X012011Y018758D01*
X011775Y018522D01*
X012051Y018522D01*
X012169Y018246D02*
X012169Y017695D01*
X012169Y019034D02*
X012169Y019585D01*
X011381Y019585D01*
X011381Y019034D01*
X011381Y020115D02*
X011381Y020666D01*
X011499Y020942D02*
X011775Y020942D01*
X011539Y021178D01*
X012011Y021178D01*
X011775Y020942D01*
X012051Y020942D01*
X012169Y020666D02*
X012169Y020115D01*
X011381Y020115D01*
X011381Y021454D02*
X011381Y022005D01*
X012169Y022005D01*
X012169Y021454D01*
X012169Y022535D02*
X011381Y022535D01*
X011381Y023086D01*
X011499Y023362D02*
X011775Y023362D01*
X011539Y023598D01*
X012011Y023598D01*
X011775Y023362D01*
X012051Y023362D01*
X012169Y023086D02*
X012169Y022535D01*
X012169Y023874D02*
X012169Y024425D01*
X011381Y024425D01*
X011381Y023874D01*
X011381Y024955D02*
X011381Y025506D01*
X011499Y025782D02*
X011775Y025782D01*
X011539Y026018D01*
X012011Y026018D01*
X011775Y025782D01*
X012051Y025782D01*
X012169Y025506D02*
X012169Y024955D01*
X011381Y024955D01*
X011381Y026294D02*
X011381Y026845D01*
X012169Y026845D01*
X012169Y026294D01*
X012169Y027375D02*
X011381Y027375D01*
X011381Y027926D01*
X011499Y028202D02*
X011775Y028202D01*
X011539Y028438D01*
X012011Y028438D01*
X011775Y028202D01*
X012051Y028202D01*
X012169Y027926D02*
X012169Y027375D01*
X012169Y028714D02*
X012169Y029265D01*
X011381Y029265D01*
X011381Y028714D01*
X008175Y028950D02*
X008175Y028450D01*
X007925Y028200D01*
X007425Y028200D01*
X007175Y028450D01*
X006925Y028200D01*
X006425Y028200D01*
X006175Y028450D01*
X005925Y028200D01*
X005425Y028200D01*
X005175Y028450D01*
X005175Y028950D01*
X005425Y029200D01*
X005925Y029200D01*
X006175Y028950D01*
X006425Y029200D01*
X006925Y029200D01*
X007175Y028950D01*
X007425Y029200D01*
X007925Y029200D01*
X008175Y028950D01*
X003300Y028950D02*
X003300Y028450D01*
X003050Y028200D01*
X002550Y028200D01*
X002300Y028450D01*
X002050Y028200D01*
X001550Y028200D01*
X001300Y028450D01*
X001300Y028950D01*
X001550Y029200D01*
X002050Y029200D01*
X002300Y028950D01*
X002550Y029200D01*
X003050Y029200D01*
X003300Y028950D01*
X007156Y024995D02*
X007156Y024444D01*
X007314Y024168D02*
X007550Y023932D01*
X007786Y024168D01*
X007314Y024168D01*
X007274Y023932D02*
X007550Y023932D01*
X007826Y023932D01*
X007944Y023656D02*
X007944Y023105D01*
X007156Y023105D01*
X007156Y023656D01*
X006456Y023296D02*
X006456Y023119D01*
X006456Y023296D02*
X004644Y023296D01*
X004644Y023119D01*
X005156Y023119D02*
X005156Y022331D01*
X004644Y022331D02*
X004644Y022154D01*
X006456Y022154D01*
X006456Y022331D01*
X006985Y020744D02*
X006985Y020406D01*
X006531Y020256D02*
X006319Y020256D01*
X005865Y020406D02*
X005865Y020744D01*
X003750Y020100D02*
X003750Y021800D01*
X002955Y022150D02*
X002150Y022150D01*
X001350Y021800D02*
X001350Y020100D01*
X002150Y019750D02*
X002943Y019750D01*
X001850Y020950D02*
X001852Y021002D01*
X001858Y021054D01*
X001868Y021106D01*
X001881Y021156D01*
X001898Y021206D01*
X001919Y021254D01*
X001944Y021300D01*
X001972Y021344D01*
X002003Y021386D01*
X002037Y021426D01*
X002074Y021463D01*
X002114Y021497D01*
X002156Y021528D01*
X002200Y021556D01*
X002246Y021581D01*
X002294Y021602D01*
X002344Y021619D01*
X002394Y021632D01*
X002446Y021642D01*
X002498Y021648D01*
X002550Y021650D01*
X002602Y021648D01*
X002654Y021642D01*
X002706Y021632D01*
X002756Y021619D01*
X002806Y021602D01*
X002854Y021581D01*
X002900Y021556D01*
X002944Y021528D01*
X002986Y021497D01*
X003026Y021463D01*
X003063Y021426D01*
X003097Y021386D01*
X003128Y021344D01*
X003156Y021300D01*
X003181Y021254D01*
X003202Y021206D01*
X003219Y021156D01*
X003232Y021106D01*
X003242Y021054D01*
X003248Y021002D01*
X003250Y020950D01*
X003248Y020898D01*
X003242Y020846D01*
X003232Y020794D01*
X003219Y020744D01*
X003202Y020694D01*
X003181Y020646D01*
X003156Y020600D01*
X003128Y020556D01*
X003097Y020514D01*
X003063Y020474D01*
X003026Y020437D01*
X002986Y020403D01*
X002944Y020372D01*
X002900Y020344D01*
X002854Y020319D01*
X002806Y020298D01*
X002756Y020281D01*
X002706Y020268D01*
X002654Y020258D01*
X002602Y020252D01*
X002550Y020250D01*
X002498Y020252D01*
X002446Y020258D01*
X002394Y020268D01*
X002344Y020281D01*
X002294Y020298D01*
X002246Y020319D01*
X002200Y020344D01*
X002156Y020372D01*
X002114Y020403D01*
X002074Y020437D01*
X002037Y020474D01*
X002003Y020514D01*
X001972Y020556D01*
X001944Y020600D01*
X001919Y020646D01*
X001898Y020694D01*
X001881Y020744D01*
X001868Y020794D01*
X001858Y020846D01*
X001852Y020898D01*
X001850Y020950D01*
X007156Y024995D02*
X007944Y024995D01*
X007944Y024444D01*
X007881Y018510D02*
X008219Y018510D01*
X008369Y018056D02*
X008369Y017844D01*
X008219Y017390D02*
X007881Y017390D01*
D11*
X002437Y024006D02*
X001413Y024006D01*
X001413Y026644D01*
X002437Y026644D01*
X002437Y024006D01*
D12*
X006125Y015275D02*
X006125Y000675D01*
X008325Y000675D01*
X008325Y015275D01*
X007475Y015275D01*
X007473Y015245D01*
X007468Y015215D01*
X007459Y015186D01*
X007446Y015159D01*
X007431Y015133D01*
X007412Y015109D01*
X007391Y015088D01*
X007367Y015069D01*
X007341Y015054D01*
X007314Y015041D01*
X007285Y015032D01*
X007255Y015027D01*
X007225Y015025D01*
X007195Y015027D01*
X007165Y015032D01*
X007136Y015041D01*
X007109Y015054D01*
X007083Y015069D01*
X007059Y015088D01*
X007038Y015109D01*
X007019Y015133D01*
X007004Y015159D01*
X006991Y015186D01*
X006982Y015215D01*
X006977Y015245D01*
X006975Y015275D01*
X006125Y015275D01*
M02*
