G75*
%MOIN*%
%OFA0B0*%
%FSLAX24Y24*%
%IPPOS*%
%LPD*%
%AMOC8*
5,1,8,0,0,1.08239X$1,22.5*
%
%ADD10C,0.0000*%
%ADD11C,0.0040*%
%ADD12R,0.0217X0.0472*%
%ADD13R,0.0472X0.0217*%
%ADD14R,0.0551X0.0472*%
%ADD15R,0.0630X0.0709*%
%ADD16R,0.0500X0.0579*%
%ADD17R,0.0315X0.0394*%
%ADD18R,0.0591X0.0276*%
%ADD19C,0.0520*%
%ADD20C,0.0740*%
%ADD21R,0.0709X0.0630*%
%ADD22OC8,0.0740*%
%ADD23C,0.0515*%
%ADD24C,0.1122*%
%ADD25C,0.0650*%
%ADD26R,0.0396X0.0396*%
%ADD27C,0.0160*%
%ADD28C,0.0080*%
%ADD29R,0.0410X0.0410*%
D10*
X000725Y000350D02*
X000725Y029850D01*
X012525Y029850D01*
X012525Y000350D01*
X000725Y000350D01*
X001748Y024734D02*
X001750Y024760D01*
X001756Y024786D01*
X001766Y024811D01*
X001779Y024834D01*
X001795Y024854D01*
X001815Y024872D01*
X001837Y024887D01*
X001860Y024899D01*
X001886Y024907D01*
X001912Y024911D01*
X001938Y024911D01*
X001964Y024907D01*
X001990Y024899D01*
X002014Y024887D01*
X002035Y024872D01*
X002055Y024854D01*
X002071Y024834D01*
X002084Y024811D01*
X002094Y024786D01*
X002100Y024760D01*
X002102Y024734D01*
X002100Y024708D01*
X002094Y024682D01*
X002084Y024657D01*
X002071Y024634D01*
X002055Y024614D01*
X002035Y024596D01*
X002013Y024581D01*
X001990Y024569D01*
X001964Y024561D01*
X001938Y024557D01*
X001912Y024557D01*
X001886Y024561D01*
X001860Y024569D01*
X001836Y024581D01*
X001815Y024596D01*
X001795Y024614D01*
X001779Y024634D01*
X001766Y024657D01*
X001756Y024682D01*
X001750Y024708D01*
X001748Y024734D01*
X001748Y025916D02*
X001750Y025942D01*
X001756Y025968D01*
X001766Y025993D01*
X001779Y026016D01*
X001795Y026036D01*
X001815Y026054D01*
X001837Y026069D01*
X001860Y026081D01*
X001886Y026089D01*
X001912Y026093D01*
X001938Y026093D01*
X001964Y026089D01*
X001990Y026081D01*
X002014Y026069D01*
X002035Y026054D01*
X002055Y026036D01*
X002071Y026016D01*
X002084Y025993D01*
X002094Y025968D01*
X002100Y025942D01*
X002102Y025916D01*
X002100Y025890D01*
X002094Y025864D01*
X002084Y025839D01*
X002071Y025816D01*
X002055Y025796D01*
X002035Y025778D01*
X002013Y025763D01*
X001990Y025751D01*
X001964Y025743D01*
X001938Y025739D01*
X001912Y025739D01*
X001886Y025743D01*
X001860Y025751D01*
X001836Y025763D01*
X001815Y025778D01*
X001795Y025796D01*
X001779Y025816D01*
X001766Y025839D01*
X001756Y025864D01*
X001750Y025890D01*
X001748Y025916D01*
D11*
X007555Y005796D02*
X007555Y005489D01*
X007555Y005643D02*
X007095Y005643D01*
X007248Y005489D01*
X007325Y004875D02*
X007402Y004875D01*
X007402Y004568D01*
X007478Y004568D02*
X007325Y004568D01*
X007248Y004645D01*
X007248Y004799D01*
X007325Y004875D01*
X007555Y004799D02*
X007555Y004645D01*
X007478Y004568D01*
X007555Y004415D02*
X007478Y004338D01*
X007171Y004338D01*
X007248Y004262D02*
X007248Y004415D01*
X007325Y004108D02*
X007248Y004031D01*
X007248Y003878D01*
X007325Y003801D01*
X007478Y003801D01*
X007555Y003878D01*
X007555Y004031D01*
X007478Y004108D01*
X007325Y004108D01*
X007248Y003648D02*
X007632Y003648D01*
X007708Y003571D01*
X007708Y003494D01*
X007555Y003418D02*
X007555Y003648D01*
X007555Y003418D02*
X007478Y003341D01*
X007248Y003341D01*
X007325Y003187D02*
X007248Y003111D01*
X007248Y002957D01*
X007325Y002880D01*
X007478Y002880D01*
X007555Y002957D01*
X007555Y003111D01*
X007478Y003187D01*
X007325Y003187D01*
X007478Y002727D02*
X007555Y002650D01*
X007555Y002497D01*
X007478Y002420D01*
X007171Y002420D01*
X007095Y002497D01*
X007095Y002650D01*
X007171Y002727D01*
D12*
X006799Y020063D03*
X006051Y020063D03*
X006051Y021087D03*
X006425Y021087D03*
X006799Y021087D03*
D13*
X007538Y018324D03*
X007538Y017950D03*
X007538Y017576D03*
X008562Y017576D03*
X008562Y018324D03*
D14*
X011775Y018049D03*
X011775Y019231D03*
X011775Y020469D03*
X011775Y021651D03*
X011775Y022889D03*
X011775Y024071D03*
X011775Y025309D03*
X011775Y026491D03*
X011775Y027729D03*
X011775Y028911D03*
X007550Y024641D03*
X007550Y023459D03*
X011775Y016811D03*
X011775Y015629D03*
X011775Y014391D03*
X011775Y013209D03*
X011775Y011971D03*
X011775Y010789D03*
X011775Y009551D03*
X011775Y008369D03*
X011775Y007131D03*
X011775Y005949D03*
X011775Y004711D03*
X011775Y003529D03*
X011775Y002291D03*
X011775Y001109D03*
D15*
X010976Y001150D03*
X009874Y001150D03*
X009844Y003500D03*
X010946Y003500D03*
X010936Y005925D03*
X009834Y005925D03*
X009834Y008325D03*
X010936Y008325D03*
X010956Y010725D03*
X009854Y010725D03*
X009874Y013125D03*
X010976Y013125D03*
X010946Y015550D03*
X009844Y015550D03*
X008601Y016575D03*
X007499Y016575D03*
X006726Y015825D03*
X005624Y015825D03*
X004776Y018400D03*
X003674Y018400D03*
X007499Y019450D03*
X008601Y019450D03*
X008626Y020550D03*
X007524Y020550D03*
X007499Y022000D03*
X008601Y022000D03*
X009854Y022925D03*
X010956Y022925D03*
X010926Y025325D03*
X009824Y025325D03*
X008626Y026025D03*
X007524Y026025D03*
X006051Y024400D03*
X004949Y024400D03*
X009844Y027725D03*
X010946Y027725D03*
X010936Y020425D03*
X009834Y020425D03*
X009864Y018025D03*
X010966Y018025D03*
X004701Y012325D03*
X004701Y011350D03*
X003599Y011350D03*
X002651Y011350D03*
X001549Y011350D03*
X001549Y012350D03*
X002651Y012350D03*
X003599Y012325D03*
X003649Y001400D03*
X004751Y001400D03*
D16*
X004704Y022725D03*
X006396Y022725D03*
D17*
X002358Y023691D03*
X001492Y023691D03*
X001492Y026959D03*
X002358Y026959D03*
D18*
X002811Y026211D03*
X002811Y025030D03*
X002811Y024439D03*
D19*
X005465Y014475D02*
X005985Y014475D01*
X005985Y013475D02*
X005465Y013475D01*
X005465Y012475D02*
X005985Y012475D01*
X005985Y011475D02*
X005465Y011475D01*
X005465Y010475D02*
X005985Y010475D01*
X005985Y009475D02*
X005465Y009475D01*
X005465Y008475D02*
X005985Y008475D01*
X005985Y007475D02*
X005465Y007475D01*
X005465Y006475D02*
X005985Y006475D01*
X005985Y005475D02*
X005465Y005475D01*
X005465Y004475D02*
X005985Y004475D01*
X005985Y003475D02*
X005465Y003475D01*
X005465Y002475D02*
X005985Y002475D01*
X005985Y001475D02*
X005465Y001475D01*
X008465Y001475D02*
X008985Y001475D01*
X008985Y002475D02*
X008465Y002475D01*
X008465Y003475D02*
X008985Y003475D01*
X008985Y004475D02*
X008465Y004475D01*
X008465Y005475D02*
X008985Y005475D01*
X008985Y006475D02*
X008465Y006475D01*
X008465Y007475D02*
X008985Y007475D01*
X008985Y008475D02*
X008465Y008475D01*
X008465Y009475D02*
X008985Y009475D01*
X008985Y010475D02*
X008465Y010475D01*
X008465Y011475D02*
X008985Y011475D01*
X008985Y012475D02*
X008465Y012475D01*
X008465Y013475D02*
X008985Y013475D01*
X008985Y014475D02*
X008465Y014475D01*
D20*
X003440Y019670D03*
X001660Y019670D03*
X001660Y022230D03*
X003440Y022230D03*
X002800Y028700D03*
X001800Y028700D03*
X005675Y028700D03*
X006675Y028700D03*
X007675Y028700D03*
X002525Y005275D03*
D21*
X001575Y006274D03*
X001575Y007376D03*
X001600Y008424D03*
X001600Y009526D03*
D22*
X001550Y004250D03*
X002550Y004250D03*
X002550Y003250D03*
X002550Y002250D03*
X001550Y002250D03*
X001550Y003250D03*
X001550Y001250D03*
X002550Y001250D03*
D23*
X004408Y014395D03*
X003935Y014710D03*
X004408Y015025D03*
X003935Y015340D03*
X004408Y015655D03*
D24*
X002400Y016462D03*
X002400Y013588D03*
D25*
X003825Y009350D03*
X003825Y007350D03*
D26*
X002300Y007375D03*
X002300Y008475D03*
X003300Y013050D03*
X004200Y013025D03*
X004975Y017300D03*
X005725Y018350D03*
X002225Y018350D03*
X002225Y017350D03*
X009800Y021175D03*
X009900Y023725D03*
X009800Y024525D03*
X009850Y026925D03*
X004225Y025100D03*
X003150Y025600D03*
X009900Y009025D03*
X009900Y006775D03*
D27*
X009900Y005991D01*
X009834Y005925D01*
X010936Y005925D02*
X011200Y006025D01*
X011700Y006025D01*
X011775Y005949D01*
X011775Y007131D02*
X010494Y007131D01*
X010400Y007225D01*
X010150Y007475D01*
X008725Y007475D01*
X008725Y006475D01*
X008261Y005975D02*
X008159Y005933D01*
X008007Y005781D01*
X007925Y005582D01*
X007925Y005368D01*
X008007Y005169D01*
X008159Y005017D01*
X008261Y004975D01*
X008159Y004933D01*
X008007Y004781D01*
X007925Y004582D01*
X007925Y004368D01*
X008007Y004169D01*
X008159Y004017D01*
X008261Y003975D01*
X008159Y003933D01*
X008007Y003781D01*
X007977Y003707D01*
X007963Y003741D01*
X007878Y003825D01*
X007855Y003849D01*
X007855Y004091D01*
X007818Y004181D01*
X007809Y004201D01*
X007809Y004201D01*
X007809Y004201D01*
X007787Y004223D01*
X007809Y004245D01*
X007855Y004355D01*
X007855Y004475D01*
X007832Y004530D01*
X007855Y004586D01*
X007855Y004858D01*
X007809Y004969D01*
X007725Y005053D01*
X007615Y005099D01*
X007603Y005099D01*
X007571Y005130D01*
X007461Y005175D01*
X007265Y005175D01*
X007155Y005130D01*
X007070Y005045D01*
X006994Y004969D01*
X006948Y004858D01*
X006948Y004586D01*
X006962Y004553D01*
X006917Y004508D01*
X006871Y004398D01*
X006871Y004279D01*
X006917Y004168D01*
X006962Y004124D01*
X006948Y004091D01*
X006948Y003818D01*
X006971Y003763D01*
X006948Y003707D01*
X006948Y003588D01*
X006987Y003494D01*
X006948Y003400D01*
X006948Y003281D01*
X006971Y003226D01*
X006948Y003170D01*
X006948Y002928D01*
X006925Y002905D01*
X006840Y002820D01*
X006795Y002710D01*
X006795Y002437D01*
X006822Y002372D01*
X006840Y002327D01*
X006840Y002327D01*
X006842Y002326D01*
X006925Y002242D01*
X007001Y002166D01*
X007001Y002166D01*
X007001Y002166D01*
X007019Y002158D01*
X007112Y002120D01*
X007486Y002120D01*
X006576Y001210D01*
X006460Y001210D01*
X006525Y001368D01*
X006525Y001582D01*
X006443Y001781D01*
X006291Y001933D01*
X006189Y001975D01*
X006291Y002017D01*
X006443Y002169D01*
X006525Y002368D01*
X006525Y002582D01*
X006443Y002781D01*
X006291Y002933D01*
X006189Y002975D01*
X006291Y003017D01*
X006443Y003169D01*
X006525Y003368D01*
X006525Y003582D01*
X006443Y003781D01*
X006291Y003933D01*
X006189Y003975D01*
X006291Y004017D01*
X006443Y004169D01*
X006525Y004368D01*
X006525Y004582D01*
X006443Y004781D01*
X006291Y004933D01*
X006189Y004975D01*
X006291Y005017D01*
X006443Y005169D01*
X006525Y005368D01*
X006525Y005582D01*
X006443Y005781D01*
X006291Y005933D01*
X006189Y005975D01*
X006291Y006017D01*
X006443Y006169D01*
X006525Y006368D01*
X006525Y006582D01*
X006443Y006781D01*
X006291Y006933D01*
X006092Y007015D01*
X005358Y007015D01*
X005159Y006933D01*
X005007Y006781D01*
X004925Y006582D01*
X004925Y006368D01*
X005007Y006169D01*
X005159Y006017D01*
X005261Y005975D01*
X005159Y005933D01*
X005007Y005781D01*
X004925Y005582D01*
X004925Y005368D01*
X005007Y005169D01*
X005159Y005017D01*
X005261Y004975D01*
X005159Y004933D01*
X005049Y004823D01*
X004946Y004780D01*
X004845Y004679D01*
X004845Y004679D01*
X003268Y003102D01*
X003200Y003079D01*
X003200Y003519D01*
X002969Y003750D01*
X003200Y003981D01*
X003200Y004519D01*
X002944Y004775D01*
X003076Y004907D01*
X003175Y005146D01*
X003175Y005404D01*
X003076Y005643D01*
X002893Y005826D01*
X002654Y005925D01*
X002396Y005925D01*
X002157Y005826D01*
X001974Y005643D01*
X001875Y005404D01*
X001875Y005146D01*
X001974Y004907D01*
X002131Y004750D01*
X002050Y004669D01*
X001819Y004900D01*
X001281Y004900D01*
X001205Y004824D01*
X001205Y005779D01*
X001498Y005779D01*
X001498Y006196D01*
X001652Y006196D01*
X001652Y005779D01*
X001953Y005779D01*
X001999Y005791D01*
X002040Y005815D01*
X002073Y005848D01*
X002097Y005889D01*
X002109Y005935D01*
X002109Y006196D01*
X001652Y006196D01*
X001652Y006351D01*
X001498Y006351D01*
X001498Y006769D01*
X001205Y006769D01*
X001205Y006781D01*
X001985Y006781D01*
X002088Y006824D01*
X002161Y006897D01*
X002554Y006897D01*
X002657Y006940D01*
X002735Y007018D01*
X002778Y007121D01*
X002778Y007629D01*
X002735Y007732D01*
X002657Y007810D01*
X002554Y007853D01*
X002163Y007853D01*
X002129Y007888D01*
X002192Y007950D01*
X002211Y007997D01*
X002554Y007997D01*
X002657Y008040D01*
X002735Y008118D01*
X002778Y008221D01*
X002778Y008729D01*
X002735Y008832D01*
X002657Y008910D01*
X002554Y008953D01*
X002136Y008953D01*
X002113Y008976D01*
X002010Y009019D01*
X001205Y009019D01*
X001205Y009036D01*
X001222Y009031D01*
X001523Y009031D01*
X001523Y009449D01*
X001677Y009449D01*
X001677Y009031D01*
X001978Y009031D01*
X002024Y009043D01*
X002065Y009067D01*
X002098Y009101D01*
X002122Y009142D01*
X002134Y009188D01*
X002134Y009449D01*
X001677Y009449D01*
X001677Y009604D01*
X001523Y009604D01*
X001523Y010021D01*
X001222Y010021D01*
X001205Y010017D01*
X001205Y010817D01*
X001210Y010816D01*
X001471Y010816D01*
X001471Y011273D01*
X001626Y011273D01*
X001626Y011427D01*
X001962Y011427D01*
X002056Y011333D01*
X002056Y010940D01*
X002099Y010837D01*
X002178Y010758D01*
X002232Y010736D01*
X002215Y009561D01*
X002212Y009496D01*
X002214Y009490D01*
X002214Y009484D01*
X002238Y009423D01*
X002260Y009361D01*
X002265Y009356D01*
X002267Y009350D01*
X002313Y009304D01*
X003241Y008279D01*
X003245Y008271D01*
X003289Y008227D01*
X003331Y008180D01*
X003340Y008176D01*
X003346Y008170D01*
X003404Y008146D01*
X003461Y008119D01*
X003470Y008118D01*
X003478Y008115D01*
X003541Y008115D01*
X003604Y008112D01*
X003613Y008115D01*
X005061Y008115D01*
X005159Y008017D01*
X005358Y007935D01*
X006092Y007935D01*
X006291Y008017D01*
X006443Y008169D01*
X006525Y008368D01*
X006525Y008582D01*
X006443Y008781D01*
X006291Y008933D01*
X006189Y008975D01*
X006291Y009017D01*
X006443Y009169D01*
X006525Y009368D01*
X006525Y009582D01*
X006443Y009781D01*
X006291Y009933D01*
X006189Y009975D01*
X006291Y010017D01*
X006443Y010169D01*
X006525Y010368D01*
X006525Y010582D01*
X006443Y010781D01*
X006291Y010933D01*
X006189Y010975D01*
X006291Y011017D01*
X006443Y011169D01*
X006525Y011368D01*
X006525Y011582D01*
X006443Y011781D01*
X006291Y011933D01*
X006189Y011975D01*
X006291Y012017D01*
X006443Y012169D01*
X006525Y012368D01*
X006525Y012582D01*
X006443Y012781D01*
X006291Y012933D01*
X006189Y012975D01*
X006291Y013017D01*
X006443Y013169D01*
X006525Y013368D01*
X006525Y013582D01*
X006443Y013781D01*
X006291Y013933D01*
X006189Y013975D01*
X006291Y014017D01*
X006443Y014169D01*
X006525Y014368D01*
X006525Y014582D01*
X006443Y014781D01*
X006291Y014933D01*
X006092Y015015D01*
X005984Y015015D01*
X005984Y015191D01*
X005994Y015191D01*
X006097Y015233D01*
X006175Y015311D01*
X006253Y015233D01*
X006356Y015191D01*
X007097Y015191D01*
X007200Y015233D01*
X007279Y015312D01*
X007300Y015365D01*
X008922Y015365D01*
X009054Y015420D01*
X009249Y015615D01*
X009249Y015464D01*
X008800Y015015D01*
X008358Y015015D01*
X008159Y014933D01*
X008007Y014781D01*
X007925Y014582D01*
X007925Y014368D01*
X008007Y014169D01*
X008159Y014017D01*
X008261Y013975D01*
X008159Y013933D01*
X008007Y013781D01*
X007925Y013582D01*
X007925Y013368D01*
X008007Y013169D01*
X008159Y013017D01*
X008261Y012975D01*
X008159Y012933D01*
X008007Y012781D01*
X007925Y012582D01*
X007925Y012368D01*
X008007Y012169D01*
X008159Y012017D01*
X008261Y011975D01*
X008159Y011933D01*
X008007Y011781D01*
X007925Y011582D01*
X007925Y011368D01*
X008007Y011169D01*
X008159Y011017D01*
X008261Y010975D01*
X008159Y010933D01*
X008007Y010781D01*
X007925Y010582D01*
X007925Y010368D01*
X008007Y010169D01*
X008159Y010017D01*
X008261Y009975D01*
X008159Y009933D01*
X008007Y009781D01*
X007925Y009582D01*
X007925Y009368D01*
X008007Y009169D01*
X008159Y009017D01*
X008358Y008935D01*
X009092Y008935D01*
X009291Y009017D01*
X009401Y009127D01*
X009422Y009136D01*
X009422Y008942D01*
X009360Y008917D01*
X009281Y008838D01*
X009271Y008811D01*
X009216Y008851D01*
X009154Y008883D01*
X009088Y008904D01*
X009020Y008915D01*
X008725Y008915D01*
X008725Y008475D01*
X008375Y008475D01*
X007613Y009238D01*
X006750Y008375D01*
X006750Y006875D01*
X006200Y007425D01*
X005775Y007425D01*
X005725Y007475D01*
X005725Y007475D01*
X005725Y007915D01*
X006020Y007915D01*
X006088Y007904D01*
X006154Y007883D01*
X006216Y007851D01*
X006272Y007811D01*
X006321Y007762D01*
X006361Y007706D01*
X006393Y007644D01*
X006414Y007578D01*
X006425Y007510D01*
X006425Y007475D01*
X005725Y007475D01*
X005725Y007475D01*
X005725Y007035D01*
X006020Y007035D01*
X006088Y007046D01*
X006154Y007067D01*
X006216Y007099D01*
X006272Y007139D01*
X006321Y007188D01*
X006361Y007244D01*
X006393Y007306D01*
X006414Y007372D01*
X006425Y007440D01*
X006425Y007475D01*
X005725Y007475D01*
X005725Y007475D01*
X005725Y007475D01*
X005025Y007475D01*
X005025Y007510D01*
X005036Y007578D01*
X005057Y007644D01*
X005089Y007706D01*
X005129Y007762D01*
X005178Y007811D01*
X005234Y007851D01*
X005296Y007883D01*
X005362Y007904D01*
X005430Y007915D01*
X005725Y007915D01*
X005725Y007475D01*
X005725Y007035D01*
X005430Y007035D01*
X005362Y007046D01*
X005296Y007067D01*
X005234Y007099D01*
X005178Y007139D01*
X005129Y007188D01*
X005089Y007244D01*
X005057Y007306D01*
X005036Y007372D01*
X005025Y007440D01*
X005025Y007475D01*
X005725Y007475D01*
X005725Y007483D02*
X005725Y007483D01*
X005725Y007641D02*
X005725Y007641D01*
X005725Y007800D02*
X005725Y007800D01*
X006148Y007958D02*
X008220Y007958D01*
X008159Y007933D02*
X008007Y007781D01*
X007925Y007582D01*
X007925Y007368D01*
X008007Y007169D01*
X008159Y007017D01*
X008261Y006975D01*
X008159Y006933D01*
X008007Y006781D01*
X007925Y006582D01*
X007925Y006368D01*
X008007Y006169D01*
X008159Y006017D01*
X008261Y005975D01*
X008124Y005898D02*
X007838Y005898D01*
X007855Y005856D02*
X007809Y005966D01*
X007725Y006051D01*
X007615Y006096D01*
X007495Y006096D01*
X007385Y006051D01*
X007301Y005966D01*
X007291Y005943D01*
X007035Y005943D01*
X006991Y005924D01*
X006925Y005897D01*
X006840Y005813D01*
X006795Y005702D01*
X006795Y005583D01*
X006813Y005539D01*
X006840Y005473D01*
X006925Y005388D01*
X007078Y005235D01*
X007188Y005189D01*
X007308Y005189D01*
X007402Y005228D01*
X007495Y005189D01*
X007615Y005189D01*
X007725Y005235D01*
X007809Y005319D01*
X007855Y005430D01*
X007855Y005856D01*
X007855Y005739D02*
X007990Y005739D01*
X007925Y005581D02*
X007855Y005581D01*
X007852Y005422D02*
X007925Y005422D01*
X007968Y005264D02*
X007753Y005264D01*
X007596Y005105D02*
X008071Y005105D01*
X008192Y004947D02*
X007818Y004947D01*
X007855Y004788D02*
X008014Y004788D01*
X007945Y004630D02*
X007855Y004630D01*
X007855Y004471D02*
X007925Y004471D01*
X007948Y004313D02*
X007837Y004313D01*
X007829Y004154D02*
X008022Y004154D01*
X007855Y003996D02*
X008212Y003996D01*
X008063Y003837D02*
X007867Y003837D01*
X006948Y003837D02*
X006387Y003837D01*
X006485Y003679D02*
X006948Y003679D01*
X006976Y003520D02*
X006525Y003520D01*
X006522Y003362D02*
X006948Y003362D01*
X006962Y003203D02*
X006457Y003203D01*
X006318Y003045D02*
X006948Y003045D01*
X006906Y002886D02*
X006338Y002886D01*
X006465Y002728D02*
X006802Y002728D01*
X006795Y002569D02*
X006525Y002569D01*
X006525Y002411D02*
X006806Y002411D01*
X006915Y002252D02*
X006477Y002252D01*
X006367Y002094D02*
X007459Y002094D01*
X007301Y001935D02*
X006286Y001935D01*
X006475Y001975D02*
X006725Y002225D01*
X006725Y005900D01*
X006475Y006150D01*
X006750Y006425D01*
X006750Y006875D01*
X006480Y006690D02*
X007970Y006690D01*
X007925Y006532D02*
X006525Y006532D01*
X006525Y006373D02*
X007925Y006373D01*
X007988Y006215D02*
X006462Y006215D01*
X006475Y006150D02*
X006325Y006000D01*
X005200Y006000D01*
X004926Y006274D01*
X002725Y006274D01*
X002725Y008850D01*
X002049Y009526D01*
X001600Y009526D01*
X001549Y009577D01*
X001549Y011350D01*
X001626Y011287D02*
X002056Y011287D01*
X002044Y011273D02*
X001626Y011273D01*
X001626Y010816D01*
X001887Y010816D01*
X001933Y010828D01*
X001974Y010852D01*
X002008Y010885D01*
X002032Y010926D01*
X002044Y010972D01*
X002044Y011273D01*
X002044Y011128D02*
X002056Y011128D01*
X002043Y010970D02*
X002056Y010970D01*
X002125Y010811D02*
X001205Y010811D01*
X001205Y010653D02*
X002231Y010653D01*
X002228Y010494D02*
X001205Y010494D01*
X001205Y010336D02*
X002226Y010336D01*
X002224Y010177D02*
X001205Y010177D01*
X001205Y010019D02*
X001212Y010019D01*
X001523Y010019D02*
X001677Y010019D01*
X001677Y010021D02*
X001677Y009604D01*
X002134Y009604D01*
X002134Y009865D01*
X002122Y009911D01*
X002098Y009952D01*
X002065Y009985D01*
X002024Y010009D01*
X001978Y010021D01*
X001677Y010021D01*
X001677Y009860D02*
X001523Y009860D01*
X001523Y009702D02*
X001677Y009702D01*
X001677Y009543D02*
X002214Y009543D01*
X002217Y009702D02*
X002134Y009702D01*
X002134Y009860D02*
X002219Y009860D01*
X002222Y010019D02*
X001988Y010019D01*
X002575Y009550D02*
X002600Y011299D01*
X002651Y011350D01*
X002549Y011350D01*
X001549Y012350D01*
X001814Y012984D02*
X001205Y012984D01*
X001205Y019361D01*
X001240Y019312D01*
X001302Y019250D01*
X001372Y019200D01*
X001449Y019160D01*
X001531Y019134D01*
X001617Y019120D01*
X001640Y019120D01*
X001640Y019650D01*
X001680Y019650D01*
X001680Y019690D01*
X001640Y019690D01*
X001640Y020220D01*
X001617Y020220D01*
X001531Y020206D01*
X001449Y020180D01*
X001372Y020140D01*
X001302Y020090D01*
X001240Y020028D01*
X001205Y019979D01*
X001205Y021921D01*
X001240Y021872D01*
X001302Y021810D01*
X001372Y021760D01*
X001449Y021720D01*
X001531Y021694D01*
X001617Y021680D01*
X001640Y021680D01*
X001640Y022210D01*
X001680Y022210D01*
X001680Y022250D01*
X001640Y022250D01*
X001640Y022780D01*
X001617Y022780D01*
X001531Y022766D01*
X001449Y022740D01*
X001372Y022700D01*
X001302Y022650D01*
X001240Y022588D01*
X001205Y022539D01*
X001205Y023245D01*
X001279Y023214D01*
X001705Y023214D01*
X001808Y023257D01*
X001887Y023336D01*
X001925Y023428D01*
X001963Y023336D01*
X002042Y023257D01*
X002145Y023214D01*
X002571Y023214D01*
X002674Y023257D01*
X002753Y023336D01*
X002796Y023439D01*
X002796Y023944D01*
X002763Y024021D01*
X003162Y024021D01*
X003265Y024064D01*
X003280Y024079D01*
X004344Y024079D01*
X004344Y023272D01*
X004295Y023252D01*
X004216Y023173D01*
X004174Y023070D01*
X004174Y022380D01*
X004216Y022277D01*
X004295Y022198D01*
X004365Y022169D01*
X004365Y020778D01*
X004420Y020646D01*
X004521Y020545D01*
X005308Y019758D01*
X005365Y019734D01*
X005365Y019499D01*
X004900Y019034D01*
X004406Y019034D01*
X004303Y018992D01*
X004224Y018913D01*
X004181Y018810D01*
X004181Y017990D01*
X004224Y017887D01*
X004303Y017808D01*
X004406Y017766D01*
X004416Y017766D01*
X004416Y017427D01*
X004471Y017295D01*
X004497Y017269D01*
X004497Y017046D01*
X004540Y016943D01*
X004618Y016865D01*
X004721Y016822D01*
X005229Y016822D01*
X005332Y016865D01*
X005410Y016943D01*
X005453Y017046D01*
X005453Y017554D01*
X005410Y017657D01*
X005332Y017735D01*
X005229Y017778D01*
X005177Y017778D01*
X005250Y017808D01*
X005329Y017887D01*
X005348Y017935D01*
X005368Y017915D01*
X005471Y017872D01*
X005979Y017872D01*
X006082Y017915D01*
X006154Y017987D01*
X006770Y017371D01*
X006871Y017270D01*
X007003Y017215D01*
X007180Y017215D01*
X007246Y017188D01*
X007830Y017188D01*
X007933Y017230D01*
X008012Y017309D01*
X008050Y017401D01*
X008088Y017309D01*
X008167Y017230D01*
X008224Y017207D01*
X008128Y017167D01*
X008049Y017088D01*
X008006Y016985D01*
X008006Y016165D01*
X008039Y016085D01*
X007933Y016085D01*
X007958Y016110D01*
X007982Y016151D01*
X007994Y016197D01*
X007994Y016498D01*
X007576Y016498D01*
X007576Y016652D01*
X007994Y016652D01*
X007994Y016953D01*
X007982Y016999D01*
X007958Y017040D01*
X007924Y017073D01*
X007883Y017097D01*
X007837Y017109D01*
X007576Y017109D01*
X007576Y016652D01*
X007421Y016652D01*
X007421Y016498D01*
X007004Y016498D01*
X007004Y016459D01*
X006356Y016459D01*
X006253Y016417D01*
X006175Y016339D01*
X006097Y016417D01*
X005994Y016459D01*
X005253Y016459D01*
X005150Y016417D01*
X005071Y016338D01*
X005029Y016235D01*
X005029Y015415D01*
X005071Y015312D01*
X005150Y015233D01*
X005253Y015191D01*
X005264Y015191D01*
X005264Y014976D01*
X005159Y014933D01*
X005007Y014781D01*
X004925Y014582D01*
X004925Y014368D01*
X005007Y014169D01*
X005159Y014017D01*
X005261Y013975D01*
X005159Y013933D01*
X005007Y013781D01*
X004925Y013582D01*
X004925Y013368D01*
X005007Y013169D01*
X005159Y013017D01*
X005261Y012975D01*
X005159Y012933D01*
X005152Y012926D01*
X005072Y012959D01*
X004678Y012959D01*
X004678Y013279D01*
X004635Y013382D01*
X004557Y013460D01*
X004454Y013503D01*
X003946Y013503D01*
X003843Y013460D01*
X003765Y013382D01*
X003755Y013359D01*
X003735Y013407D01*
X003657Y013485D01*
X003554Y013528D01*
X003241Y013528D01*
X003241Y013755D01*
X003113Y014064D01*
X002876Y014301D01*
X002567Y014429D01*
X002233Y014429D01*
X001924Y014301D01*
X001687Y014064D01*
X001559Y013755D01*
X001559Y013421D01*
X001687Y013112D01*
X001814Y012984D01*
X001769Y013030D02*
X001205Y013030D01*
X001205Y013189D02*
X001655Y013189D01*
X001589Y013347D02*
X001205Y013347D01*
X001205Y013506D02*
X001559Y013506D01*
X001559Y013664D02*
X001205Y013664D01*
X001205Y013823D02*
X001587Y013823D01*
X001652Y013981D02*
X001205Y013981D01*
X001205Y014140D02*
X001762Y014140D01*
X001921Y014298D02*
X001205Y014298D01*
X001205Y014457D02*
X003459Y014457D01*
X003480Y014406D02*
X003631Y014254D01*
X003829Y014173D01*
X004030Y014173D01*
X004034Y014166D01*
X004074Y014110D01*
X004123Y014061D01*
X004179Y014021D01*
X004240Y013990D01*
X004305Y013968D01*
X004373Y013958D01*
X004408Y013958D01*
X004442Y013958D01*
X004510Y013968D01*
X004576Y013990D01*
X004637Y014021D01*
X004693Y014061D01*
X004742Y014110D01*
X004782Y014166D01*
X004813Y014227D01*
X004835Y014293D01*
X004845Y014361D01*
X004845Y014395D01*
X004408Y014395D01*
X004408Y014395D01*
X004408Y013958D01*
X004408Y014395D01*
X004408Y014395D01*
X004845Y014395D01*
X004845Y014430D01*
X004835Y014498D01*
X004813Y014563D01*
X004782Y014624D01*
X004776Y014633D01*
X004864Y014721D01*
X004945Y014918D01*
X004945Y015132D01*
X004864Y015329D01*
X004853Y015340D01*
X004864Y015350D01*
X004945Y015548D01*
X004945Y015762D01*
X004864Y015959D01*
X004712Y016111D01*
X004515Y016192D01*
X004301Y016192D01*
X004103Y016111D01*
X003952Y015959D01*
X003918Y015877D01*
X003829Y015877D01*
X003631Y015796D01*
X003480Y015644D01*
X003398Y015447D01*
X003398Y015233D01*
X003480Y015036D01*
X003490Y015025D01*
X003480Y015014D01*
X003398Y014817D01*
X003398Y014603D01*
X003480Y014406D01*
X003587Y014298D02*
X002879Y014298D01*
X003038Y014140D02*
X004053Y014140D01*
X004266Y013981D02*
X003148Y013981D01*
X003213Y013823D02*
X005049Y013823D01*
X004959Y013664D02*
X003241Y013664D01*
X003608Y013506D02*
X004925Y013506D01*
X004934Y013347D02*
X004650Y013347D01*
X004678Y013189D02*
X004999Y013189D01*
X005146Y013030D02*
X004678Y013030D01*
X004200Y013025D02*
X003599Y012424D01*
X003599Y012325D01*
X003300Y013050D02*
X002651Y012401D01*
X002651Y012350D01*
X003599Y011402D01*
X003599Y011350D01*
X004701Y011350D02*
X004725Y011326D01*
X004725Y009850D01*
X005100Y009475D01*
X005725Y009475D01*
X006364Y009860D02*
X008086Y009860D01*
X008158Y010019D02*
X006292Y010019D01*
X006446Y010177D02*
X008004Y010177D01*
X007938Y010336D02*
X006512Y010336D01*
X006525Y010494D02*
X007925Y010494D01*
X007954Y010653D02*
X006496Y010653D01*
X006413Y010811D02*
X008037Y010811D01*
X008248Y010970D02*
X006202Y010970D01*
X006402Y011128D02*
X008048Y011128D01*
X007959Y011287D02*
X006491Y011287D01*
X006525Y011445D02*
X007925Y011445D01*
X007934Y011604D02*
X006516Y011604D01*
X006451Y011762D02*
X007999Y011762D01*
X008147Y011921D02*
X006303Y011921D01*
X006353Y012079D02*
X008097Y012079D01*
X007979Y012238D02*
X006471Y012238D01*
X006525Y012396D02*
X007925Y012396D01*
X007925Y012555D02*
X006525Y012555D01*
X006471Y012713D02*
X007979Y012713D01*
X008098Y012872D02*
X006352Y012872D01*
X006304Y013030D02*
X008146Y013030D01*
X007999Y013189D02*
X006451Y013189D01*
X006516Y013347D02*
X007934Y013347D01*
X007925Y013506D02*
X006525Y013506D01*
X006491Y013664D02*
X007959Y013664D01*
X008049Y013823D02*
X006401Y013823D01*
X006200Y013975D02*
X007275Y012925D01*
X007275Y009575D01*
X007613Y009238D01*
X007925Y009385D02*
X006525Y009385D01*
X006525Y009543D02*
X007925Y009543D01*
X007974Y009702D02*
X006476Y009702D01*
X006466Y009226D02*
X007984Y009226D01*
X008109Y009068D02*
X006341Y009068D01*
X006315Y008909D02*
X008393Y008909D01*
X008362Y008904D02*
X008296Y008883D01*
X008234Y008851D01*
X008178Y008811D01*
X008129Y008762D01*
X008089Y008706D01*
X008057Y008644D01*
X008036Y008578D01*
X008025Y008510D01*
X008025Y008475D01*
X008725Y008475D01*
X009239Y008475D01*
X008725Y008475D01*
X008725Y008475D01*
X008725Y008475D01*
X008725Y008035D01*
X009020Y008035D01*
X009088Y008046D01*
X009154Y008067D01*
X009216Y008099D01*
X009239Y008116D01*
X009239Y007954D01*
X009092Y008015D01*
X008358Y008015D01*
X008159Y007933D01*
X008234Y008099D02*
X008296Y008067D01*
X008362Y008046D01*
X008430Y008035D01*
X008725Y008035D01*
X008725Y008475D01*
X008725Y008475D01*
X008725Y008475D01*
X008725Y008915D01*
X008430Y008915D01*
X008362Y008904D01*
X008121Y008751D02*
X006455Y008751D01*
X006521Y008592D02*
X008040Y008592D01*
X008025Y008475D02*
X008025Y008440D01*
X008036Y008372D01*
X008057Y008306D01*
X008089Y008244D01*
X008129Y008188D01*
X008178Y008139D01*
X008234Y008099D01*
X008210Y008117D02*
X006390Y008117D01*
X006487Y008275D02*
X008073Y008275D01*
X008026Y008434D02*
X006525Y008434D01*
X006283Y007800D02*
X008026Y007800D01*
X007949Y007641D02*
X006394Y007641D01*
X006425Y007483D02*
X007925Y007483D01*
X007943Y007324D02*
X006399Y007324D01*
X006298Y007166D02*
X008011Y007166D01*
X008184Y007007D02*
X006112Y007007D01*
X006375Y006849D02*
X008075Y006849D01*
X008120Y006056D02*
X007712Y006056D01*
X007398Y006056D02*
X006330Y006056D01*
X006326Y005898D02*
X006926Y005898D01*
X006810Y005739D02*
X006460Y005739D01*
X006525Y005581D02*
X006796Y005581D01*
X006891Y005422D02*
X006525Y005422D01*
X006482Y005264D02*
X007050Y005264D01*
X006925Y005388D02*
X006925Y005388D01*
X007130Y005105D02*
X006379Y005105D01*
X006258Y004947D02*
X006985Y004947D01*
X006948Y004788D02*
X006436Y004788D01*
X006505Y004630D02*
X006948Y004630D01*
X006902Y004471D02*
X006525Y004471D01*
X006502Y004313D02*
X006871Y004313D01*
X006931Y004154D02*
X006428Y004154D01*
X006238Y003996D02*
X006948Y003996D01*
X005725Y004475D02*
X005150Y004475D01*
X003400Y002725D01*
X003350Y002750D01*
X003369Y003203D02*
X003200Y003203D01*
X003200Y003362D02*
X003527Y003362D01*
X003686Y003520D02*
X003199Y003520D01*
X003041Y003679D02*
X003844Y003679D01*
X004003Y003837D02*
X003056Y003837D01*
X003200Y003996D02*
X004161Y003996D01*
X004320Y004154D02*
X003200Y004154D01*
X003200Y004313D02*
X004478Y004313D01*
X004637Y004471D02*
X003200Y004471D01*
X003090Y004630D02*
X004795Y004630D01*
X004965Y004788D02*
X002957Y004788D01*
X003092Y004947D02*
X005192Y004947D01*
X005071Y005105D02*
X003158Y005105D01*
X003175Y005264D02*
X004968Y005264D01*
X004925Y005422D02*
X003168Y005422D01*
X003102Y005581D02*
X004925Y005581D01*
X004990Y005739D02*
X002980Y005739D01*
X002721Y005898D02*
X005124Y005898D01*
X005120Y006056D02*
X002109Y006056D01*
X002099Y005898D02*
X002329Y005898D01*
X002070Y005739D02*
X001205Y005739D01*
X001205Y005581D02*
X001948Y005581D01*
X001882Y005422D02*
X001205Y005422D01*
X001205Y005264D02*
X001875Y005264D01*
X001892Y005105D02*
X001205Y005105D01*
X001205Y004947D02*
X001958Y004947D01*
X001931Y004788D02*
X002093Y004788D01*
X001652Y005898D02*
X001498Y005898D01*
X001498Y006056D02*
X001652Y006056D01*
X001652Y006215D02*
X004988Y006215D01*
X004925Y006373D02*
X002109Y006373D01*
X002109Y006351D02*
X002109Y006612D01*
X002097Y006658D01*
X002073Y006699D01*
X002040Y006733D01*
X001999Y006757D01*
X001953Y006769D01*
X001652Y006769D01*
X001652Y006351D01*
X002109Y006351D01*
X002109Y006532D02*
X004925Y006532D01*
X004970Y006690D02*
X002079Y006690D01*
X002113Y006849D02*
X003471Y006849D01*
X003482Y006837D02*
X003705Y006745D01*
X003945Y006745D01*
X004168Y006837D01*
X004338Y007007D01*
X004430Y007230D01*
X004430Y007470D01*
X004338Y007693D01*
X004168Y007863D01*
X003945Y007955D01*
X003705Y007955D01*
X003482Y007863D01*
X003312Y007693D01*
X003220Y007470D01*
X003220Y007230D01*
X003312Y007007D01*
X003482Y006837D01*
X003312Y007007D02*
X002724Y007007D01*
X002778Y007166D02*
X003247Y007166D01*
X003220Y007324D02*
X002778Y007324D01*
X002778Y007483D02*
X003225Y007483D01*
X003291Y007641D02*
X002773Y007641D01*
X002668Y007800D02*
X003419Y007800D01*
X003475Y008117D02*
X002734Y008117D01*
X002778Y008275D02*
X003243Y008275D01*
X003102Y008434D02*
X002778Y008434D01*
X002778Y008592D02*
X002958Y008592D01*
X002814Y008751D02*
X002769Y008751D01*
X002670Y008909D02*
X002658Y008909D01*
X002527Y009068D02*
X002065Y009068D01*
X002134Y009226D02*
X002383Y009226D01*
X002252Y009385D02*
X002134Y009385D01*
X001677Y009385D02*
X001523Y009385D01*
X001523Y009226D02*
X001677Y009226D01*
X001677Y009068D02*
X001523Y009068D01*
X001600Y008424D02*
X002249Y008424D01*
X002300Y008475D01*
X002195Y007958D02*
X005302Y007958D01*
X005167Y007800D02*
X004231Y007800D01*
X004359Y007641D02*
X005056Y007641D01*
X005025Y007483D02*
X004425Y007483D01*
X004430Y007324D02*
X005051Y007324D01*
X005152Y007166D02*
X004403Y007166D01*
X004338Y007007D02*
X005338Y007007D01*
X005075Y006849D02*
X004179Y006849D01*
X005725Y007166D02*
X005725Y007166D01*
X005725Y007324D02*
X005725Y007324D01*
X005725Y008475D02*
X003550Y008475D01*
X002575Y009550D01*
X001626Y010970D02*
X001471Y010970D01*
X001471Y011128D02*
X001626Y011128D01*
X004701Y012325D02*
X005551Y011475D01*
X005725Y011475D01*
X006200Y013975D02*
X004850Y013975D01*
X004455Y014395D01*
X004408Y014395D01*
X004645Y014395D01*
X004900Y014650D01*
X004900Y016250D01*
X005225Y016575D01*
X004775Y016575D01*
X003725Y017625D01*
X003725Y018349D01*
X003674Y018400D01*
X002930Y018400D01*
X001660Y019670D01*
X001680Y019687D02*
X002790Y019687D01*
X002790Y019799D02*
X002790Y019541D01*
X002889Y019302D01*
X003072Y019119D01*
X003311Y019020D01*
X003569Y019020D01*
X003808Y019119D01*
X003991Y019302D01*
X004090Y019541D01*
X004090Y019799D01*
X003991Y020038D01*
X003808Y020221D01*
X003800Y020224D01*
X003800Y021676D01*
X003808Y021679D01*
X003991Y021862D01*
X004090Y022101D01*
X004090Y022359D01*
X003991Y022598D01*
X003808Y022781D01*
X003569Y022880D01*
X003311Y022880D01*
X003072Y022781D01*
X002889Y022598D01*
X002790Y022359D01*
X002790Y022101D01*
X002889Y021862D01*
X003072Y021679D01*
X003080Y021676D01*
X003080Y020224D01*
X003072Y020221D01*
X002889Y020038D01*
X002790Y019799D01*
X002809Y019846D02*
X002181Y019846D01*
X002170Y019881D02*
X002130Y019958D01*
X002080Y020028D01*
X002018Y020090D01*
X001948Y020140D01*
X001871Y020180D01*
X001789Y020206D01*
X001703Y020220D01*
X001680Y020220D01*
X001680Y019690D01*
X002210Y019690D01*
X002210Y019713D01*
X002196Y019799D01*
X002170Y019881D01*
X002097Y020004D02*
X002875Y020004D01*
X003013Y020163D02*
X001905Y020163D01*
X001680Y020163D02*
X001640Y020163D01*
X001640Y020004D02*
X001680Y020004D01*
X001680Y019846D02*
X001640Y019846D01*
X001680Y019650D02*
X002210Y019650D01*
X002210Y019627D01*
X002196Y019541D01*
X002170Y019459D01*
X002130Y019382D01*
X002080Y019312D01*
X002018Y019250D01*
X001948Y019200D01*
X001871Y019160D01*
X001789Y019134D01*
X001703Y019120D01*
X001680Y019120D01*
X001680Y019650D01*
X001680Y019529D02*
X001640Y019529D01*
X001640Y019370D02*
X001680Y019370D01*
X001680Y019212D02*
X001640Y019212D01*
X001355Y019212D02*
X001205Y019212D01*
X001205Y019053D02*
X003231Y019053D01*
X003289Y018922D02*
X003248Y018898D01*
X003215Y018865D01*
X003191Y018824D01*
X003179Y018778D01*
X003179Y018477D01*
X003596Y018477D01*
X003596Y018323D01*
X003179Y018323D01*
X003179Y018022D01*
X003191Y017976D01*
X003215Y017935D01*
X003248Y017902D01*
X003289Y017878D01*
X003335Y017866D01*
X003596Y017866D01*
X003596Y018323D01*
X003751Y018323D01*
X003751Y018477D01*
X004169Y018477D01*
X004169Y018778D01*
X004157Y018824D01*
X004133Y018865D01*
X004099Y018898D01*
X004058Y018922D01*
X004012Y018934D01*
X003751Y018934D01*
X003751Y018477D01*
X003596Y018477D01*
X003596Y018934D01*
X003335Y018934D01*
X003289Y018922D01*
X003244Y018895D02*
X001205Y018895D01*
X001205Y018736D02*
X001819Y018736D01*
X001790Y018707D02*
X001747Y018604D01*
X001747Y018096D01*
X001790Y017993D01*
X001865Y017918D01*
X001865Y017782D01*
X001790Y017707D01*
X001747Y017604D01*
X001747Y017096D01*
X001776Y017027D01*
X001687Y016938D01*
X001559Y016629D01*
X001559Y016295D01*
X001687Y015986D01*
X001924Y015749D01*
X002233Y015621D01*
X002567Y015621D01*
X002876Y015749D01*
X003113Y015986D01*
X003241Y016295D01*
X003241Y016629D01*
X003113Y016938D01*
X002876Y017175D01*
X002703Y017247D01*
X002703Y017604D01*
X002660Y017707D01*
X002585Y017782D01*
X002585Y017918D01*
X002660Y017993D01*
X002703Y018096D01*
X002703Y018604D01*
X002660Y018707D01*
X002582Y018785D01*
X002479Y018828D01*
X001971Y018828D01*
X001868Y018785D01*
X001790Y018707D01*
X001747Y018578D02*
X001205Y018578D01*
X001205Y018419D02*
X001747Y018419D01*
X001747Y018261D02*
X001205Y018261D01*
X001205Y018102D02*
X001747Y018102D01*
X001839Y017944D02*
X001205Y017944D01*
X001205Y017785D02*
X001865Y017785D01*
X001756Y017627D02*
X001205Y017627D01*
X001205Y017468D02*
X001747Y017468D01*
X001747Y017310D02*
X001205Y017310D01*
X001205Y017151D02*
X001747Y017151D01*
X001741Y016993D02*
X001205Y016993D01*
X001205Y016834D02*
X001644Y016834D01*
X001578Y016676D02*
X001205Y016676D01*
X001205Y016517D02*
X001559Y016517D01*
X001559Y016359D02*
X001205Y016359D01*
X001205Y016200D02*
X001598Y016200D01*
X001664Y016042D02*
X001205Y016042D01*
X001205Y015883D02*
X001790Y015883D01*
X001983Y015725D02*
X001205Y015725D01*
X001205Y015566D02*
X003447Y015566D01*
X003398Y015408D02*
X001205Y015408D01*
X001205Y015249D02*
X003398Y015249D01*
X003457Y015091D02*
X001205Y015091D01*
X001205Y014932D02*
X003446Y014932D01*
X003398Y014774D02*
X001205Y014774D01*
X001205Y014615D02*
X003398Y014615D01*
X004408Y014298D02*
X004408Y014298D01*
X004408Y014140D02*
X004408Y014140D01*
X004408Y013981D02*
X004408Y013981D01*
X004549Y013981D02*
X005246Y013981D01*
X005037Y014140D02*
X004763Y014140D01*
X004835Y014298D02*
X004954Y014298D01*
X004925Y014457D02*
X004841Y014457D01*
X004787Y014615D02*
X004939Y014615D01*
X004885Y014774D02*
X005004Y014774D01*
X004945Y014932D02*
X005158Y014932D01*
X005264Y015091D02*
X004945Y015091D01*
X004897Y015249D02*
X005135Y015249D01*
X005032Y015408D02*
X004887Y015408D01*
X004945Y015566D02*
X005029Y015566D01*
X005029Y015725D02*
X004945Y015725D01*
X004895Y015883D02*
X005029Y015883D01*
X005029Y016042D02*
X004781Y016042D01*
X005029Y016200D02*
X003202Y016200D01*
X003241Y016359D02*
X005092Y016359D01*
X005225Y016575D02*
X007499Y016575D01*
X007800Y016575D01*
X008000Y016775D01*
X008000Y017875D01*
X007925Y017950D01*
X007538Y017950D01*
X007563Y017925D01*
X007800Y017925D01*
X007900Y018025D01*
X008000Y018025D01*
X008000Y018775D01*
X007424Y019351D01*
X007424Y019375D01*
X007499Y019450D01*
X007526Y019450D01*
X008626Y020550D01*
X007499Y021677D01*
X007499Y022000D01*
X007474Y022025D01*
X007474Y022099D01*
X008650Y023275D01*
X008650Y026001D01*
X008626Y026025D01*
X008650Y026049D01*
X008650Y026475D01*
X008350Y026775D01*
X007450Y026775D01*
X006675Y027550D01*
X006675Y028025D01*
X006700Y028025D01*
X006675Y028025D02*
X006675Y028700D01*
X006695Y028720D02*
X006655Y028720D01*
X006655Y029250D01*
X006632Y029250D01*
X006546Y029236D01*
X006464Y029210D01*
X006387Y029170D01*
X006317Y029120D01*
X006255Y029058D01*
X006239Y029036D01*
X006226Y029068D01*
X006043Y029251D01*
X005804Y029350D01*
X005546Y029350D01*
X005307Y029251D01*
X005124Y029068D01*
X005025Y028829D01*
X005025Y028571D01*
X005124Y028332D01*
X005307Y028149D01*
X005546Y028050D01*
X005804Y028050D01*
X006043Y028149D01*
X006226Y028332D01*
X006239Y028364D01*
X006255Y028342D01*
X006317Y028280D01*
X006387Y028230D01*
X006464Y028190D01*
X006546Y028164D01*
X006632Y028150D01*
X006655Y028150D01*
X006655Y028680D01*
X006695Y028680D01*
X006695Y028150D01*
X006718Y028150D01*
X006804Y028164D01*
X006886Y028190D01*
X006963Y028230D01*
X007033Y028280D01*
X007095Y028342D01*
X007111Y028364D01*
X007124Y028332D01*
X007307Y028149D01*
X007546Y028050D01*
X007804Y028050D01*
X008043Y028149D01*
X008226Y028332D01*
X008229Y028340D01*
X009426Y028340D01*
X009370Y028317D01*
X009291Y028238D01*
X009249Y028135D01*
X009249Y027315D01*
X009291Y027212D01*
X009370Y027133D01*
X009372Y027133D01*
X009372Y026671D01*
X009415Y026568D01*
X009493Y026490D01*
X009596Y026447D01*
X010040Y026447D01*
X010040Y025959D01*
X009453Y025959D01*
X009350Y025917D01*
X009271Y025838D01*
X009229Y025735D01*
X009229Y024915D01*
X009271Y024812D01*
X009322Y024762D01*
X009322Y024271D01*
X009365Y024168D01*
X009443Y024090D01*
X009464Y024081D01*
X009422Y023979D01*
X009422Y023534D01*
X009380Y023517D01*
X009301Y023438D01*
X009259Y023335D01*
X009259Y022515D01*
X009301Y022412D01*
X009380Y022333D01*
X009483Y022291D01*
X010040Y022291D01*
X010040Y022085D01*
X009196Y022085D01*
X009196Y022410D01*
X009154Y022513D01*
X009075Y022592D01*
X008972Y022634D01*
X008231Y022634D01*
X008128Y022592D01*
X008049Y022513D01*
X008006Y022410D01*
X008006Y021590D01*
X008049Y021487D01*
X008128Y021408D01*
X008231Y021366D01*
X008803Y021366D01*
X008805Y021365D01*
X009322Y021365D01*
X009322Y020978D01*
X009281Y020938D01*
X009239Y020835D01*
X009239Y020015D01*
X009281Y019912D01*
X009360Y019833D01*
X009416Y019810D01*
X009196Y019810D01*
X009196Y019860D01*
X009154Y019963D01*
X009075Y020042D01*
X009051Y020051D01*
X009052Y020052D01*
X009085Y020085D01*
X009109Y020126D01*
X009121Y020172D01*
X009121Y020473D01*
X008704Y020473D01*
X008704Y020627D01*
X009121Y020627D01*
X009121Y020928D01*
X009109Y020974D01*
X009085Y021015D01*
X009052Y021048D01*
X009011Y021072D01*
X008965Y021084D01*
X008704Y021084D01*
X008704Y020627D01*
X008549Y020627D01*
X008549Y020473D01*
X008131Y020473D01*
X008131Y020172D01*
X008143Y020126D01*
X008167Y020085D01*
X008186Y020066D01*
X008128Y020042D01*
X008049Y019963D01*
X008006Y019860D01*
X008006Y019040D01*
X008049Y018937D01*
X008128Y018858D01*
X008202Y018828D01*
X008202Y018684D01*
X008167Y018670D01*
X008088Y018591D01*
X008050Y018499D01*
X008012Y018591D01*
X007933Y018670D01*
X007830Y018712D01*
X007246Y018712D01*
X007180Y018685D01*
X007149Y018685D01*
X006266Y019568D01*
X006318Y019590D01*
X006397Y019668D01*
X006425Y019737D01*
X006453Y019668D01*
X006532Y019590D01*
X006635Y019547D01*
X006963Y019547D01*
X007004Y019564D01*
X007004Y019527D01*
X007421Y019527D01*
X007421Y019373D01*
X007004Y019373D01*
X007004Y019072D01*
X007016Y019026D01*
X007040Y018985D01*
X007073Y018952D01*
X007114Y018928D01*
X007160Y018916D01*
X007421Y018916D01*
X007421Y019373D01*
X007576Y019373D01*
X007576Y019527D01*
X007994Y019527D01*
X007994Y019828D01*
X007982Y019874D01*
X007958Y019915D01*
X007939Y019934D01*
X007997Y019958D01*
X008076Y020037D01*
X008119Y020140D01*
X008119Y020960D01*
X008076Y021063D01*
X007997Y021142D01*
X007894Y021184D01*
X007187Y021184D01*
X007187Y021379D01*
X007159Y021447D01*
X007159Y021466D01*
X007160Y021466D01*
X007421Y021466D01*
X007421Y021923D01*
X007576Y021923D01*
X007576Y022077D01*
X007994Y022077D01*
X007994Y022378D01*
X007982Y022424D01*
X007958Y022465D01*
X007924Y022498D01*
X007883Y022522D01*
X007837Y022534D01*
X007576Y022534D01*
X007576Y022077D01*
X007421Y022077D01*
X007421Y022387D01*
X007754Y022720D01*
X007855Y022821D01*
X007910Y022953D01*
X007910Y022955D01*
X007984Y022986D01*
X008063Y023065D01*
X008106Y023168D01*
X008106Y023751D01*
X008063Y023854D01*
X007984Y023933D01*
X007881Y023976D01*
X007219Y023976D01*
X007116Y023933D01*
X007037Y023854D01*
X006994Y023751D01*
X006994Y023168D01*
X007037Y023065D01*
X007059Y023043D01*
X006926Y022911D01*
X006926Y023070D01*
X006884Y023173D01*
X006805Y023252D01*
X006702Y023294D01*
X006091Y023294D01*
X006090Y023294D01*
X005860Y023524D01*
X005860Y023766D01*
X006422Y023766D01*
X006525Y023808D01*
X006604Y023887D01*
X006646Y023990D01*
X006646Y024040D01*
X007381Y024040D01*
X007513Y024095D01*
X007543Y024124D01*
X007881Y024124D01*
X007984Y024167D01*
X008063Y024246D01*
X008106Y024349D01*
X008106Y024932D01*
X008063Y025035D01*
X007984Y025114D01*
X007881Y025157D01*
X007219Y025157D01*
X007116Y025114D01*
X007037Y025035D01*
X006994Y024932D01*
X006994Y024760D01*
X006646Y024760D01*
X006646Y024810D01*
X006604Y024913D01*
X006525Y024992D01*
X006422Y025034D01*
X005860Y025034D01*
X005860Y026115D01*
X006925Y026115D01*
X006929Y026111D01*
X006929Y025615D01*
X006971Y025512D01*
X007050Y025433D01*
X007153Y025391D01*
X007894Y025391D01*
X007997Y025433D01*
X008076Y025512D01*
X008119Y025615D01*
X008119Y026435D01*
X008076Y026538D01*
X007997Y026617D01*
X007894Y026659D01*
X007399Y026659D01*
X007278Y026780D01*
X007145Y026835D01*
X005174Y026835D01*
X003447Y028563D01*
X005028Y028563D01*
X005025Y028722D02*
X003450Y028722D01*
X003450Y028829D02*
X003351Y029068D01*
X003168Y029251D01*
X002929Y029350D01*
X002671Y029350D01*
X002432Y029251D01*
X002249Y029068D01*
X002236Y029036D01*
X002220Y029058D01*
X002158Y029120D01*
X002088Y029170D01*
X002011Y029210D01*
X001929Y029236D01*
X001843Y029250D01*
X001820Y029250D01*
X001820Y028720D01*
X001780Y028720D01*
X001780Y029250D01*
X001757Y029250D01*
X001671Y029236D01*
X001589Y029210D01*
X001512Y029170D01*
X001442Y029120D01*
X001380Y029058D01*
X001330Y028988D01*
X001290Y028911D01*
X001264Y028829D01*
X001250Y028743D01*
X001250Y028720D01*
X001780Y028720D01*
X001780Y028680D01*
X001820Y028680D01*
X001820Y028150D01*
X001843Y028150D01*
X001929Y028164D01*
X002011Y028190D01*
X002088Y028230D01*
X002158Y028280D01*
X002220Y028342D01*
X002236Y028364D01*
X002249Y028332D01*
X002432Y028149D01*
X002671Y028050D01*
X002929Y028050D01*
X002937Y028053D01*
X004821Y026170D01*
X004953Y026115D01*
X005140Y026115D01*
X005140Y025034D01*
X004703Y025034D01*
X004703Y025354D01*
X004660Y025457D01*
X004582Y025535D01*
X004479Y025578D01*
X003971Y025578D01*
X003868Y025535D01*
X003793Y025460D01*
X002809Y025460D01*
X002779Y025448D01*
X002460Y025448D01*
X002357Y025405D01*
X002278Y025326D01*
X002269Y025303D01*
X002217Y025325D01*
X002297Y025358D01*
X002482Y025543D01*
X002582Y025785D01*
X002582Y025893D01*
X002811Y025893D01*
X003130Y025893D01*
X003176Y025905D01*
X003217Y025929D01*
X003250Y025963D01*
X003274Y026004D01*
X003286Y026049D01*
X003286Y026211D01*
X003286Y026372D01*
X003274Y026418D01*
X003250Y026459D01*
X003217Y026493D01*
X003176Y026516D01*
X003130Y026529D01*
X002811Y026529D01*
X002811Y026211D01*
X002811Y026211D01*
X003286Y026211D01*
X002811Y026211D01*
X002811Y026211D01*
X002811Y026529D01*
X002678Y026529D01*
X002753Y026603D01*
X002796Y026706D01*
X002796Y027211D01*
X002753Y027314D01*
X002674Y027393D01*
X002571Y027436D01*
X002145Y027436D01*
X002042Y027393D01*
X001963Y027314D01*
X001925Y027222D01*
X001887Y027314D01*
X001808Y027393D01*
X001705Y027436D01*
X001279Y027436D01*
X001205Y027405D01*
X001205Y029370D01*
X011327Y029370D01*
X011262Y029305D01*
X011219Y029202D01*
X011219Y029185D01*
X010428Y029185D01*
X010296Y029130D01*
X010226Y029060D01*
X008229Y029060D01*
X008226Y029068D01*
X008043Y029251D01*
X007804Y029350D01*
X007546Y029350D01*
X007307Y029251D01*
X007124Y029068D01*
X007111Y029036D01*
X007095Y029058D01*
X007033Y029120D01*
X006963Y029170D01*
X006886Y029210D01*
X006804Y029236D01*
X006718Y029250D01*
X006695Y029250D01*
X006695Y028720D01*
X006695Y028722D02*
X006655Y028722D01*
X006655Y028880D02*
X006695Y028880D01*
X006695Y029039D02*
X006655Y029039D01*
X006655Y029197D02*
X006695Y029197D01*
X006911Y029197D02*
X007253Y029197D01*
X007112Y029039D02*
X007109Y029039D01*
X006695Y028563D02*
X006655Y028563D01*
X006655Y028405D02*
X006695Y028405D01*
X006695Y028246D02*
X006655Y028246D01*
X006364Y028246D02*
X006140Y028246D01*
X005895Y028088D02*
X007455Y028088D01*
X007210Y028246D02*
X006986Y028246D01*
X007675Y028700D02*
X010375Y028700D01*
X010400Y028725D01*
X010500Y028825D01*
X011689Y028825D01*
X011775Y028911D01*
X011219Y029197D02*
X008097Y029197D01*
X008140Y028246D02*
X009300Y028246D01*
X009249Y028088D02*
X007895Y028088D01*
X009249Y027929D02*
X004080Y027929D01*
X003922Y028088D02*
X005455Y028088D01*
X005210Y028246D02*
X003763Y028246D01*
X003605Y028405D02*
X005094Y028405D01*
X005046Y028880D02*
X003429Y028880D01*
X003450Y028829D02*
X003450Y028571D01*
X003447Y028563D01*
X003363Y029039D02*
X005112Y029039D01*
X005253Y029197D02*
X003222Y029197D01*
X002800Y028700D02*
X005025Y026475D01*
X005500Y026475D01*
X007074Y026475D01*
X007524Y026025D01*
X008119Y026027D02*
X008549Y026027D01*
X008549Y026102D02*
X008549Y025948D01*
X008131Y025948D01*
X008131Y025647D01*
X008143Y025601D01*
X008167Y025560D01*
X008201Y025527D01*
X008242Y025503D01*
X008288Y025491D01*
X008549Y025491D01*
X008549Y025948D01*
X008704Y025948D01*
X008704Y026102D01*
X009121Y026102D01*
X009121Y026403D01*
X009109Y026449D01*
X009085Y026490D01*
X009052Y026523D01*
X009011Y026547D01*
X008965Y026559D01*
X008704Y026559D01*
X008704Y026102D01*
X008549Y026102D01*
X008131Y026102D01*
X008131Y026403D01*
X008143Y026449D01*
X008167Y026490D01*
X008201Y026523D01*
X008242Y026547D01*
X008288Y026559D01*
X008549Y026559D01*
X008549Y026102D01*
X008549Y026186D02*
X008704Y026186D01*
X008704Y026344D02*
X008549Y026344D01*
X008549Y026503D02*
X008704Y026503D01*
X009072Y026503D02*
X009480Y026503D01*
X009376Y026661D02*
X007397Y026661D01*
X007183Y026820D02*
X009372Y026820D01*
X009372Y026978D02*
X005031Y026978D01*
X004873Y027137D02*
X009367Y027137D01*
X009257Y027295D02*
X004714Y027295D01*
X004556Y027454D02*
X009249Y027454D01*
X009249Y027612D02*
X004397Y027612D01*
X004239Y027771D02*
X009249Y027771D01*
X009844Y027725D02*
X009850Y027719D01*
X009850Y026925D01*
X010400Y026525D02*
X010434Y026491D01*
X011775Y026491D01*
X011700Y025525D02*
X011200Y025525D01*
X010926Y025325D01*
X011700Y025525D02*
X011775Y025309D01*
X011775Y024071D02*
X010554Y024071D01*
X010400Y024225D01*
X010400Y026525D01*
X010400Y028725D01*
X011312Y029356D02*
X001205Y029356D01*
X001205Y029197D02*
X001564Y029197D01*
X001780Y029197D02*
X001820Y029197D01*
X001820Y029039D02*
X001780Y029039D01*
X001780Y028880D02*
X001820Y028880D01*
X001820Y028722D02*
X001780Y028722D01*
X001800Y028700D02*
X001700Y028525D01*
X001750Y028525D01*
X002825Y027450D01*
X002825Y026225D01*
X002811Y026211D01*
X002811Y025939D01*
X003150Y025600D01*
X003280Y026027D02*
X005140Y026027D01*
X005140Y025869D02*
X002582Y025869D01*
X002551Y025710D02*
X005140Y025710D01*
X005140Y025552D02*
X004543Y025552D01*
X004687Y025393D02*
X005140Y025393D01*
X005140Y025235D02*
X004703Y025235D01*
X004703Y025076D02*
X005140Y025076D01*
X005860Y025076D02*
X007078Y025076D01*
X006994Y024918D02*
X006599Y024918D01*
X007147Y025393D02*
X005860Y025393D01*
X005860Y025235D02*
X009229Y025235D01*
X009229Y025393D02*
X007900Y025393D01*
X008093Y025552D02*
X008176Y025552D01*
X008131Y025710D02*
X008119Y025710D01*
X008119Y025869D02*
X008131Y025869D01*
X008119Y026186D02*
X008131Y026186D01*
X008119Y026344D02*
X008131Y026344D01*
X008091Y026503D02*
X008180Y026503D01*
X008704Y026027D02*
X010040Y026027D01*
X010040Y026186D02*
X009121Y026186D01*
X009121Y026344D02*
X010040Y026344D01*
X009302Y025869D02*
X009121Y025869D01*
X009121Y025948D02*
X008704Y025948D01*
X008704Y025491D01*
X008965Y025491D01*
X009011Y025503D01*
X009052Y025527D01*
X009085Y025560D01*
X009109Y025601D01*
X009121Y025647D01*
X009121Y025948D01*
X009121Y025710D02*
X009229Y025710D01*
X009229Y025552D02*
X009077Y025552D01*
X008704Y025552D02*
X008549Y025552D01*
X008549Y025710D02*
X008704Y025710D01*
X008704Y025869D02*
X008549Y025869D01*
X008022Y025076D02*
X009229Y025076D01*
X009229Y024918D02*
X008106Y024918D01*
X008106Y024759D02*
X009322Y024759D01*
X009322Y024601D02*
X008106Y024601D01*
X008106Y024442D02*
X009322Y024442D01*
X009322Y024284D02*
X008079Y024284D01*
X007883Y024125D02*
X009408Y024125D01*
X009422Y023967D02*
X007903Y023967D01*
X008082Y023808D02*
X009422Y023808D01*
X009422Y023650D02*
X008106Y023650D01*
X008106Y023491D02*
X009355Y023491D01*
X009259Y023333D02*
X008106Y023333D01*
X008106Y023174D02*
X009259Y023174D01*
X009259Y023016D02*
X008014Y023016D01*
X007870Y022857D02*
X009259Y022857D01*
X009259Y022699D02*
X007733Y022699D01*
X007574Y022540D02*
X008076Y022540D01*
X008006Y022382D02*
X007993Y022382D01*
X007994Y022223D02*
X008006Y022223D01*
X008006Y022065D02*
X007576Y022065D01*
X007576Y021923D02*
X007994Y021923D01*
X007994Y021622D01*
X007982Y021576D01*
X007958Y021535D01*
X007924Y021502D01*
X007883Y021478D01*
X007837Y021466D01*
X007576Y021466D01*
X007576Y021923D01*
X007576Y021906D02*
X007421Y021906D01*
X007421Y021748D02*
X007576Y021748D01*
X007576Y021589D02*
X007421Y021589D01*
X007166Y021431D02*
X008105Y021431D01*
X008007Y021589D02*
X007985Y021589D01*
X007994Y021748D02*
X008006Y021748D01*
X007994Y021906D02*
X008006Y021906D01*
X007576Y022223D02*
X007421Y022223D01*
X007421Y022382D02*
X007576Y022382D01*
X007550Y023025D02*
X007550Y023459D01*
X007550Y023025D02*
X006799Y022274D01*
X006799Y021087D01*
X006800Y021088D01*
X006425Y021087D02*
X006425Y020525D01*
X006375Y020575D01*
X006318Y020613D02*
X006375Y020671D01*
X006425Y020671D01*
X006425Y020761D01*
X006425Y020761D01*
X006425Y020761D01*
X006425Y020671D01*
X006475Y020671D01*
X006532Y020613D01*
X006625Y020575D01*
X006532Y020537D01*
X006453Y020458D01*
X006425Y020389D01*
X006397Y020458D01*
X006318Y020537D01*
X006225Y020575D01*
X006318Y020613D01*
X006343Y020638D02*
X006507Y020638D01*
X006425Y020525D02*
X006425Y019600D01*
X006650Y019375D01*
X007424Y019375D01*
X007421Y019370D02*
X007576Y019370D01*
X007576Y019373D02*
X007576Y018916D01*
X007837Y018916D01*
X007883Y018928D01*
X007924Y018952D01*
X007958Y018985D01*
X007982Y019026D01*
X007994Y019072D01*
X007994Y019373D01*
X007576Y019373D01*
X007576Y019212D02*
X007421Y019212D01*
X007421Y019053D02*
X007576Y019053D01*
X007989Y019053D02*
X008006Y019053D01*
X007994Y019212D02*
X008006Y019212D01*
X007994Y019370D02*
X008006Y019370D01*
X007994Y019529D02*
X008006Y019529D01*
X007994Y019687D02*
X008006Y019687D01*
X007989Y019846D02*
X008006Y019846D01*
X008043Y020004D02*
X008090Y020004D01*
X008119Y020163D02*
X008134Y020163D01*
X008119Y020321D02*
X008131Y020321D01*
X008119Y020480D02*
X008549Y020480D01*
X008549Y020627D02*
X008131Y020627D01*
X008131Y020928D01*
X008143Y020974D01*
X008167Y021015D01*
X008201Y021048D01*
X008242Y021072D01*
X008288Y021084D01*
X008549Y021084D01*
X008549Y020627D01*
X008549Y020638D02*
X008704Y020638D01*
X008704Y020480D02*
X009239Y020480D01*
X009239Y020638D02*
X009121Y020638D01*
X009121Y020797D02*
X009239Y020797D01*
X009299Y020955D02*
X009114Y020955D01*
X009322Y021114D02*
X008026Y021114D01*
X008119Y020955D02*
X008138Y020955D01*
X008131Y020797D02*
X008119Y020797D01*
X008119Y020638D02*
X008131Y020638D01*
X008549Y020797D02*
X008704Y020797D01*
X008704Y020955D02*
X008549Y020955D01*
X009322Y021272D02*
X007187Y021272D01*
X007524Y020550D02*
X007037Y020063D01*
X006799Y020063D01*
X006446Y019687D02*
X006404Y019687D01*
X006306Y019529D02*
X007004Y019529D01*
X007004Y019370D02*
X006464Y019370D01*
X006623Y019212D02*
X007004Y019212D01*
X007009Y019053D02*
X006781Y019053D01*
X006940Y018895D02*
X008091Y018895D01*
X008202Y018736D02*
X007098Y018736D01*
X007000Y018325D02*
X007537Y018325D01*
X007538Y018324D01*
X007864Y017950D02*
X007864Y017950D01*
X007864Y017950D01*
X007954Y017950D01*
X007864Y017950D01*
X007954Y017950D02*
X007954Y017900D01*
X008012Y017843D01*
X008050Y017750D01*
X008088Y017843D01*
X008167Y017922D01*
X008236Y017950D01*
X008167Y017978D01*
X008088Y018057D01*
X008050Y018150D01*
X008012Y018057D01*
X007954Y018000D01*
X007954Y017950D01*
X007954Y017944D02*
X008220Y017944D01*
X008070Y018102D02*
X008030Y018102D01*
X008036Y017785D02*
X008064Y017785D01*
X008088Y017310D02*
X008012Y017310D01*
X008112Y017151D02*
X005453Y017151D01*
X005453Y017310D02*
X006831Y017310D01*
X006673Y017468D02*
X005453Y017468D01*
X005423Y017627D02*
X006514Y017627D01*
X006356Y017785D02*
X005194Y017785D01*
X004776Y017499D02*
X004975Y017300D01*
X004776Y017499D02*
X004776Y018400D01*
X004776Y018401D01*
X005725Y019350D01*
X005975Y019350D01*
X007000Y018325D01*
X006300Y018350D02*
X007075Y017575D01*
X007537Y017575D01*
X007538Y017576D01*
X007421Y017109D02*
X007160Y017109D01*
X007114Y017097D01*
X007073Y017073D01*
X007040Y017040D01*
X007016Y016999D01*
X007004Y016953D01*
X007004Y016652D01*
X007421Y016652D01*
X007421Y017109D01*
X007421Y016993D02*
X007576Y016993D01*
X007576Y016834D02*
X007421Y016834D01*
X007421Y016676D02*
X007576Y016676D01*
X007576Y016517D02*
X008006Y016517D01*
X007994Y016359D02*
X008006Y016359D01*
X007994Y016200D02*
X008006Y016200D01*
X007994Y016676D02*
X008006Y016676D01*
X007994Y016834D02*
X008006Y016834D01*
X008009Y016993D02*
X007983Y016993D01*
X007421Y016517D02*
X003241Y016517D01*
X003222Y016676D02*
X007004Y016676D01*
X007004Y016834D02*
X005258Y016834D01*
X005431Y016993D02*
X007014Y016993D01*
X006194Y016359D02*
X006156Y016359D01*
X005624Y015825D02*
X005624Y014576D01*
X005725Y014475D01*
X006204Y013981D02*
X008246Y013981D01*
X008037Y014140D02*
X006413Y014140D01*
X006496Y014298D02*
X007954Y014298D01*
X007925Y014457D02*
X006525Y014457D01*
X006511Y014615D02*
X007939Y014615D01*
X008004Y014774D02*
X006446Y014774D01*
X006292Y014932D02*
X008158Y014932D01*
X008725Y014475D02*
X008769Y014475D01*
X009844Y015550D01*
X009249Y015566D02*
X009200Y015566D01*
X009192Y015408D02*
X009024Y015408D01*
X009034Y015249D02*
X007215Y015249D01*
X006650Y015725D02*
X008850Y015725D01*
X009300Y016175D01*
X009300Y017586D01*
X008562Y018324D01*
X008562Y019411D01*
X008601Y019450D01*
X010275Y019450D01*
X010400Y019325D01*
X010494Y019231D01*
X011775Y019231D01*
X011775Y018049D02*
X011700Y018025D01*
X010966Y018025D01*
X009864Y018025D02*
X009850Y018039D01*
X009850Y018975D01*
X010400Y019325D02*
X010400Y021725D01*
X008876Y021725D01*
X008601Y022000D01*
X009196Y022223D02*
X010040Y022223D01*
X009332Y022382D02*
X009196Y022382D01*
X009259Y022540D02*
X009126Y022540D01*
X009854Y022925D02*
X009900Y022971D01*
X009900Y023725D01*
X010400Y024225D02*
X010400Y021725D01*
X010474Y021651D01*
X011775Y021651D01*
X011700Y020525D02*
X011200Y020525D01*
X010936Y020425D01*
X011700Y020525D02*
X011775Y020469D01*
X010400Y019325D02*
X010400Y016825D01*
X010414Y016811D01*
X011775Y016811D01*
X011775Y015629D02*
X011700Y015525D01*
X011200Y015525D01*
X010946Y015550D01*
X010400Y014525D02*
X010534Y014391D01*
X011775Y014391D01*
X011775Y013209D02*
X011700Y013025D01*
X011200Y013025D01*
X010976Y013125D01*
X009874Y013125D02*
X009524Y013475D01*
X008725Y013475D01*
X010400Y014525D02*
X010400Y016825D01*
X008601Y016575D02*
X008601Y017537D01*
X008562Y017576D01*
X008083Y018578D02*
X008017Y018578D01*
X009196Y019846D02*
X009348Y019846D01*
X009243Y020004D02*
X009112Y020004D01*
X009119Y020163D02*
X009239Y020163D01*
X009239Y020321D02*
X009121Y020321D01*
X009800Y020459D02*
X009834Y020425D01*
X009800Y020459D02*
X009800Y021175D01*
X010956Y022925D02*
X011200Y023025D01*
X011700Y023025D01*
X011775Y022889D01*
X009800Y024525D02*
X009800Y025301D01*
X009824Y025325D01*
X007550Y024641D02*
X007309Y024400D01*
X006051Y024400D01*
X006636Y023967D02*
X007197Y023967D01*
X007018Y023808D02*
X006524Y023808D01*
X006994Y023650D02*
X005860Y023650D01*
X005893Y023491D02*
X006994Y023491D01*
X006994Y023333D02*
X006052Y023333D01*
X005500Y023375D02*
X005500Y026475D01*
X005860Y026027D02*
X006929Y026027D01*
X006929Y025869D02*
X005860Y025869D01*
X005860Y025710D02*
X006929Y025710D01*
X006955Y025552D02*
X005860Y025552D01*
X004805Y026186D02*
X003286Y026186D01*
X003286Y026344D02*
X004647Y026344D01*
X004488Y026503D02*
X003200Y026503D01*
X002811Y026503D02*
X002811Y026503D01*
X002811Y026344D02*
X002811Y026344D01*
X002811Y026211D02*
X002811Y025893D01*
X002811Y026211D01*
X002811Y026211D01*
X002811Y026186D02*
X002811Y026186D01*
X002811Y026027D02*
X002811Y026027D01*
X002486Y025552D02*
X003907Y025552D01*
X004225Y025100D02*
X002881Y025100D01*
X002811Y025030D01*
X002345Y025393D02*
X002332Y025393D01*
X002811Y024439D02*
X004636Y024439D01*
X004812Y024263D01*
X004949Y024400D01*
X004812Y024263D02*
X004704Y024155D01*
X004704Y022725D01*
X004725Y022704D01*
X004725Y020850D01*
X005512Y020063D01*
X005725Y020063D01*
X005725Y019350D01*
X005365Y019529D02*
X004085Y019529D01*
X004090Y019687D02*
X005365Y019687D01*
X005220Y019846D02*
X004071Y019846D01*
X004005Y020004D02*
X005062Y020004D01*
X004903Y020163D02*
X003867Y020163D01*
X003800Y020321D02*
X004745Y020321D01*
X004586Y020480D02*
X003800Y020480D01*
X003800Y020638D02*
X004428Y020638D01*
X004365Y020797D02*
X003800Y020797D01*
X003800Y020955D02*
X004365Y020955D01*
X004365Y021114D02*
X003800Y021114D01*
X003800Y021272D02*
X004365Y021272D01*
X004365Y021431D02*
X003800Y021431D01*
X003800Y021589D02*
X004365Y021589D01*
X004365Y021748D02*
X003877Y021748D01*
X004009Y021906D02*
X004365Y021906D01*
X004365Y022065D02*
X004075Y022065D01*
X004090Y022223D02*
X004270Y022223D01*
X004174Y022382D02*
X004081Y022382D01*
X004015Y022540D02*
X004174Y022540D01*
X004174Y022699D02*
X003891Y022699D01*
X003625Y022857D02*
X004174Y022857D01*
X004174Y023016D02*
X001205Y023016D01*
X001205Y023174D02*
X004217Y023174D01*
X004344Y023333D02*
X002750Y023333D01*
X002796Y023491D02*
X004344Y023491D01*
X004344Y023650D02*
X002796Y023650D01*
X002796Y023808D02*
X004344Y023808D01*
X004344Y023967D02*
X002786Y023967D01*
X001966Y023333D02*
X001884Y023333D01*
X001789Y022766D02*
X001703Y022780D01*
X001680Y022780D01*
X001680Y022250D01*
X002210Y022250D01*
X002210Y022273D01*
X002196Y022359D01*
X002170Y022441D01*
X002130Y022518D01*
X002080Y022588D01*
X002018Y022650D01*
X001948Y022700D01*
X001871Y022740D01*
X001789Y022766D01*
X001680Y022699D02*
X001640Y022699D01*
X001640Y022540D02*
X001680Y022540D01*
X001680Y022382D02*
X001640Y022382D01*
X001680Y022223D02*
X002790Y022223D01*
X002799Y022382D02*
X002189Y022382D01*
X002210Y022210D02*
X001680Y022210D01*
X001680Y021680D01*
X001703Y021680D01*
X001789Y021694D01*
X001871Y021720D01*
X001948Y021760D01*
X002018Y021810D01*
X002080Y021872D01*
X002130Y021942D01*
X002170Y022019D01*
X002196Y022101D01*
X002210Y022187D01*
X002210Y022210D01*
X002185Y022065D02*
X002805Y022065D01*
X002871Y021906D02*
X002104Y021906D01*
X001925Y021748D02*
X003003Y021748D01*
X003080Y021589D02*
X001205Y021589D01*
X001205Y021431D02*
X003080Y021431D01*
X003080Y021272D02*
X001205Y021272D01*
X001205Y021114D02*
X003080Y021114D01*
X003080Y020955D02*
X001205Y020955D01*
X001205Y020797D02*
X003080Y020797D01*
X003080Y020638D02*
X001205Y020638D01*
X001205Y020480D02*
X003080Y020480D01*
X003080Y020321D02*
X001205Y020321D01*
X001205Y020163D02*
X001415Y020163D01*
X001223Y020004D02*
X001205Y020004D01*
X002192Y019529D02*
X002795Y019529D01*
X002861Y019370D02*
X002122Y019370D01*
X001965Y019212D02*
X002979Y019212D01*
X003179Y018736D02*
X002631Y018736D01*
X002703Y018578D02*
X003179Y018578D01*
X003179Y018261D02*
X002703Y018261D01*
X002703Y018419D02*
X003596Y018419D01*
X003751Y018419D02*
X004181Y018419D01*
X004169Y018323D02*
X003751Y018323D01*
X003751Y017866D01*
X004012Y017866D01*
X004058Y017878D01*
X004099Y017902D01*
X004133Y017935D01*
X004157Y017976D01*
X004169Y018022D01*
X004169Y018323D01*
X004169Y018261D02*
X004181Y018261D01*
X004169Y018102D02*
X004181Y018102D01*
X004200Y017944D02*
X004138Y017944D01*
X004359Y017785D02*
X002585Y017785D01*
X002611Y017944D02*
X003210Y017944D01*
X003179Y018102D02*
X002703Y018102D01*
X002694Y017627D02*
X004416Y017627D01*
X004416Y017468D02*
X002703Y017468D01*
X002703Y017310D02*
X004465Y017310D01*
X004497Y017151D02*
X002900Y017151D01*
X003059Y016993D02*
X004519Y016993D01*
X004692Y016834D02*
X003156Y016834D01*
X003136Y016042D02*
X004034Y016042D01*
X003921Y015883D02*
X003010Y015883D01*
X002817Y015725D02*
X003560Y015725D01*
X002225Y017350D02*
X002225Y018350D01*
X003596Y018261D02*
X003751Y018261D01*
X003751Y018102D02*
X003596Y018102D01*
X003596Y017944D02*
X003751Y017944D01*
X003751Y018578D02*
X003596Y018578D01*
X003596Y018736D02*
X003751Y018736D01*
X003751Y018895D02*
X003596Y018895D01*
X003649Y019053D02*
X004919Y019053D01*
X005077Y019212D02*
X003901Y019212D01*
X004019Y019370D02*
X005236Y019370D01*
X005725Y020063D02*
X006051Y020063D01*
X006375Y020480D02*
X006475Y020480D01*
X006051Y021087D02*
X005725Y021413D01*
X005725Y022350D01*
X006100Y022725D01*
X006150Y022725D01*
X005500Y023375D01*
X006150Y022725D02*
X006396Y022725D01*
X006926Y023016D02*
X007031Y023016D01*
X006994Y023174D02*
X006883Y023174D01*
X003440Y022230D02*
X003440Y019670D01*
X004103Y018895D02*
X004216Y018895D01*
X004181Y018736D02*
X004169Y018736D01*
X004169Y018578D02*
X004181Y018578D01*
X005725Y018350D02*
X006300Y018350D01*
X006197Y017944D02*
X006111Y017944D01*
X006113Y015249D02*
X006237Y015249D01*
X005984Y015091D02*
X008875Y015091D01*
X010400Y014525D02*
X010400Y012025D01*
X010454Y011971D01*
X011775Y011971D01*
X011700Y011025D02*
X011200Y011025D01*
X010956Y010725D01*
X011700Y011025D02*
X011775Y010789D01*
X011775Y009551D02*
X010426Y009551D01*
X010400Y009525D01*
X010400Y012025D01*
X009854Y010725D02*
X009900Y010679D01*
X009900Y010075D01*
X009300Y009475D01*
X008725Y009475D01*
X008725Y008909D02*
X008725Y008909D01*
X008725Y008751D02*
X008725Y008751D01*
X008725Y008592D02*
X008725Y008592D01*
X008725Y008475D02*
X008025Y008475D01*
X008725Y008434D02*
X008725Y008434D01*
X008725Y008275D02*
X008725Y008275D01*
X008725Y008117D02*
X008725Y008117D01*
X009230Y007958D02*
X009239Y007958D01*
X009834Y008325D02*
X009900Y008391D01*
X009900Y009025D01*
X009422Y009068D02*
X009341Y009068D01*
X009353Y008909D02*
X009057Y008909D01*
X009239Y008475D02*
X009239Y008475D01*
X010400Y009525D02*
X010400Y007225D01*
X010400Y004725D01*
X010414Y004711D01*
X011775Y004711D01*
X011775Y003529D02*
X011700Y003525D01*
X011200Y003525D01*
X010946Y003500D01*
X009844Y003500D02*
X009844Y003169D01*
X009200Y002525D01*
X008775Y002525D01*
X008725Y002475D01*
X008725Y001475D02*
X009050Y001150D01*
X009874Y001150D01*
X010334Y001925D02*
X007800Y001925D01*
X006725Y000850D01*
X005301Y000850D01*
X004751Y001400D01*
X004751Y001376D01*
X004225Y000850D01*
X002725Y000850D01*
X002550Y001025D01*
X002550Y001250D01*
X002131Y001750D02*
X001979Y001599D01*
X001899Y001679D01*
X002050Y001831D01*
X002131Y001750D01*
X002104Y001777D02*
X001996Y001777D01*
X001999Y001618D02*
X001960Y001618D01*
X002550Y002250D02*
X002575Y002275D01*
X004400Y002275D01*
X004700Y002575D01*
X004700Y003025D01*
X005150Y003475D01*
X005725Y003475D01*
X006925Y002242D02*
X006925Y002242D01*
X006475Y001975D02*
X004200Y001975D01*
X003975Y001750D01*
X003975Y001726D01*
X003649Y001400D01*
X003726Y001460D02*
X004156Y001460D01*
X004144Y001477D02*
X004144Y001778D01*
X004132Y001824D01*
X004108Y001865D01*
X004074Y001898D01*
X004045Y001915D01*
X004201Y001915D01*
X004199Y001913D01*
X004156Y001810D01*
X004156Y001290D01*
X004144Y001278D01*
X004144Y001323D01*
X003726Y001323D01*
X003726Y001477D01*
X004144Y001477D01*
X004144Y001618D02*
X004156Y001618D01*
X004144Y001777D02*
X004156Y001777D01*
X003975Y001750D02*
X003299Y001750D01*
X004144Y001301D02*
X004156Y001301D01*
X006445Y001777D02*
X007142Y001777D01*
X006984Y001618D02*
X006510Y001618D01*
X006525Y001460D02*
X006825Y001460D01*
X006667Y001301D02*
X006497Y001301D01*
X010334Y001925D02*
X010700Y002291D01*
X010634Y002291D01*
X010400Y002525D01*
X010400Y004725D01*
X010700Y002291D02*
X011775Y002291D01*
X011775Y001109D02*
X011017Y001109D01*
X010976Y001150D01*
X002725Y006274D02*
X001575Y006274D01*
X001498Y006373D02*
X001652Y006373D01*
X001652Y006532D02*
X001498Y006532D01*
X001498Y006690D02*
X001652Y006690D01*
X001575Y007376D02*
X002299Y007376D01*
X002300Y007375D01*
X010936Y008325D02*
X011200Y008525D01*
X011700Y008525D01*
X011775Y008369D01*
X001680Y021748D02*
X001640Y021748D01*
X001640Y021906D02*
X001680Y021906D01*
X001680Y022065D02*
X001640Y022065D01*
X001395Y021748D02*
X001205Y021748D01*
X001205Y021906D02*
X001216Y021906D01*
X001205Y022540D02*
X001205Y022540D01*
X001205Y022699D02*
X001369Y022699D01*
X001205Y022857D02*
X003255Y022857D01*
X002989Y022699D02*
X001951Y022699D01*
X002115Y022540D02*
X002865Y022540D01*
X002777Y026661D02*
X004330Y026661D01*
X004171Y026820D02*
X002796Y026820D01*
X002796Y026978D02*
X004013Y026978D01*
X003854Y027137D02*
X002796Y027137D01*
X002761Y027295D02*
X003696Y027295D01*
X003537Y027454D02*
X001205Y027454D01*
X001205Y027612D02*
X003379Y027612D01*
X003220Y027771D02*
X001205Y027771D01*
X001205Y027929D02*
X003062Y027929D01*
X002580Y028088D02*
X001205Y028088D01*
X001205Y028246D02*
X001489Y028246D01*
X001512Y028230D02*
X001589Y028190D01*
X001671Y028164D01*
X001757Y028150D01*
X001780Y028150D01*
X001780Y028680D01*
X001250Y028680D01*
X001250Y028657D01*
X001264Y028571D01*
X001290Y028489D01*
X001330Y028412D01*
X001380Y028342D01*
X001442Y028280D01*
X001512Y028230D01*
X001335Y028405D02*
X001205Y028405D01*
X001205Y028563D02*
X001266Y028563D01*
X001250Y028722D02*
X001205Y028722D01*
X001205Y028880D02*
X001280Y028880D01*
X001205Y029039D02*
X001366Y029039D01*
X001780Y028563D02*
X001820Y028563D01*
X001820Y028405D02*
X001780Y028405D01*
X001780Y028246D02*
X001820Y028246D01*
X002111Y028246D02*
X002335Y028246D01*
X002234Y029039D02*
X002237Y029039D01*
X002378Y029197D02*
X002036Y029197D01*
X001955Y027295D02*
X001895Y027295D01*
X006097Y029197D02*
X006439Y029197D01*
X006241Y029039D02*
X006238Y029039D01*
X010946Y027725D02*
X011200Y027525D01*
X011700Y027525D01*
X011775Y027729D01*
D28*
X003350Y002750D02*
X002200Y002750D01*
X001725Y002250D01*
X001550Y002250D01*
X002050Y001750D02*
X003299Y001750D01*
X002050Y001750D02*
X001550Y001250D01*
D29*
X009850Y018975D03*
M02*
