G75*
%MOIN*%
%OFA0B0*%
%FSLAX24Y24*%
%IPPOS*%
%LPD*%
%AMOC8*
5,1,8,0,0,1.08239X$1,22.5*
%
%ADD10C,0.0434*%
%ADD11C,0.0600*%
%ADD12C,0.0820*%
%ADD13OC8,0.0820*%
%ADD14C,0.0595*%
%ADD15C,0.1202*%
%ADD16C,0.0730*%
%ADD17R,0.0476X0.0476*%
%ADD18R,0.0490X0.0490*%
D10*
X001925Y024734D03*
X001925Y025916D03*
D11*
X005465Y014475D02*
X005985Y014475D01*
X005985Y013475D02*
X005465Y013475D01*
X005465Y012475D02*
X005985Y012475D01*
X005985Y011475D02*
X005465Y011475D01*
X005465Y010475D02*
X005985Y010475D01*
X005985Y009475D02*
X005465Y009475D01*
X005465Y008475D02*
X005985Y008475D01*
X005985Y007475D02*
X005465Y007475D01*
X005465Y006475D02*
X005985Y006475D01*
X005985Y005475D02*
X005465Y005475D01*
X005465Y004475D02*
X005985Y004475D01*
X005985Y003475D02*
X005465Y003475D01*
X005465Y002475D02*
X005985Y002475D01*
X005985Y001475D02*
X005465Y001475D01*
X008465Y001475D02*
X008985Y001475D01*
X008985Y002475D02*
X008465Y002475D01*
X008465Y003475D02*
X008985Y003475D01*
X008985Y004475D02*
X008465Y004475D01*
X008465Y005475D02*
X008985Y005475D01*
X008985Y006475D02*
X008465Y006475D01*
X008465Y007475D02*
X008985Y007475D01*
X008985Y008475D02*
X008465Y008475D01*
X008465Y009475D02*
X008985Y009475D01*
X008985Y010475D02*
X008465Y010475D01*
X008465Y011475D02*
X008985Y011475D01*
X008985Y012475D02*
X008465Y012475D01*
X008465Y013475D02*
X008985Y013475D01*
X008985Y014475D02*
X008465Y014475D01*
D12*
X003440Y019670D03*
X001660Y019670D03*
X001660Y022230D03*
X003440Y022230D03*
X002800Y028700D03*
X001800Y028700D03*
X005675Y028700D03*
X006675Y028700D03*
X007675Y028700D03*
X002525Y005275D03*
D13*
X001550Y001250D03*
X002550Y001250D03*
X002550Y002250D03*
X002550Y003250D03*
X001550Y003250D03*
X001550Y002250D03*
X001550Y004250D03*
X002550Y004250D03*
D14*
X004408Y014395D03*
X003935Y014710D03*
X004408Y015025D03*
X003935Y015340D03*
X004408Y015655D03*
D15*
X002400Y016462D03*
X002400Y013588D03*
D16*
X003825Y009350D03*
X003825Y007350D03*
D17*
X002300Y007375D03*
X002300Y008475D03*
X003300Y013050D03*
X004200Y013025D03*
X004975Y017300D03*
X005725Y018350D03*
X002225Y018350D03*
X002225Y017350D03*
X009800Y021175D03*
X009900Y023725D03*
X009800Y024525D03*
X009850Y026925D03*
X004225Y025100D03*
X003150Y025600D03*
X009900Y009025D03*
X009900Y006775D03*
D18*
X009850Y018975D03*
M02*
