%
M48
M72
T01C0.0236
T02C0.0250
T03C0.0276
T04C0.0315
T05C0.0320
T06C0.0354
T07C0.0400
T08C0.0748
%
T01
X2300Y7208
X2300Y8308
X3300Y12883
X4200Y12858
X4975Y17133
X5725Y18183
X2225Y18183
X2225Y17183
X9800Y21008
X9900Y23558
X9800Y24358
X9850Y26758
X4225Y24933
X3150Y25433
X9900Y8858
X9900Y6608
T02
X9850Y18808
T03
X3825Y9183
X3825Y7183
T04
X4408Y14228
X3935Y14543
X4408Y14858
X3935Y15173
X4408Y15488
T05
X5725Y14308
X5725Y13308
X5725Y12308
X5725Y11308
X5725Y10308
X5725Y9308
X5725Y8308
X5725Y7308
X5725Y6308
X5725Y5308
X5725Y4308
X5725Y3308
X5725Y2308
X5725Y1308
X8725Y1308
X8725Y2308
X8725Y3308
X8725Y4308
X8725Y5308
X8725Y6308
X8725Y7308
X8725Y8308
X8725Y9308
X8725Y10308
X8725Y11308
X8725Y12308
X8725Y13308
X8725Y14308
T06
X1925Y24568
X1925Y25749
T07
X1550Y1083
X2550Y1083
X2550Y2083
X1550Y2083
X1550Y3083
X2550Y3083
X2550Y4083
X1550Y4083
X2525Y5108
X1660Y19503
X3440Y19503
X3440Y22063
X1660Y22063
X1800Y28533
X2800Y28533
X5675Y28533
X6675Y28533
X7675Y28533
T08
X2400Y16295
X2400Y13421
M30
