G75*
G70*
%OFA0B0*%
%FSLAX24Y24*%
%IPPOS*%
%LPD*%
%AMOC8*
5,1,8,0,0,1.08239X$1,22.5*
%
%ADD10C,0.0060*%
%ADD11C,0.0080*%
%ADD12C,0.0050*%
D10*
X001280Y000545D02*
X001280Y000759D01*
X001387Y000865D01*
X001600Y000865D01*
X001707Y000759D01*
X001707Y000652D01*
X001280Y000652D01*
X001280Y000545D02*
X001387Y000438D01*
X001600Y000438D01*
X003680Y000470D02*
X003787Y000363D01*
X004107Y000363D01*
X004107Y000790D02*
X003787Y000790D01*
X003680Y000684D01*
X003680Y000470D01*
X006125Y000508D02*
X008325Y000508D01*
X008325Y015108D01*
X007475Y015108D01*
X007473Y015078D01*
X007468Y015048D01*
X007459Y015019D01*
X007446Y014992D01*
X007431Y014966D01*
X007412Y014942D01*
X007391Y014921D01*
X007367Y014902D01*
X007341Y014887D01*
X007314Y014874D01*
X007285Y014865D01*
X007255Y014860D01*
X007225Y014858D01*
X007195Y014860D01*
X007165Y014865D01*
X007136Y014874D01*
X007109Y014887D01*
X007083Y014902D01*
X007059Y014921D01*
X007038Y014942D01*
X007019Y014966D01*
X007004Y014992D01*
X006991Y015019D01*
X006982Y015048D01*
X006977Y015078D01*
X006975Y015108D01*
X006125Y015108D01*
X006125Y000508D01*
X006155Y000470D02*
X006155Y000684D01*
X006262Y000790D01*
X006475Y000790D01*
X006582Y000684D01*
X006582Y000577D01*
X006155Y000577D01*
X006155Y000470D02*
X006262Y000363D01*
X006475Y000363D01*
X008705Y000545D02*
X008812Y000438D01*
X009132Y000438D01*
X009132Y000865D02*
X008812Y000865D01*
X008705Y000759D01*
X008705Y000545D01*
X007734Y008963D02*
X007093Y008963D01*
X007093Y009284D01*
X007200Y009390D01*
X007413Y009390D01*
X007520Y009284D01*
X007520Y008963D01*
X007520Y009608D02*
X007520Y009821D01*
X007520Y009715D02*
X007093Y009715D01*
X007093Y009608D01*
X006879Y009715D02*
X006773Y009715D01*
X007093Y010038D02*
X007093Y010358D01*
X007200Y010465D01*
X007520Y010465D01*
X007520Y010682D02*
X006879Y010682D01*
X007093Y011002D02*
X007306Y010682D01*
X007520Y011002D01*
X007413Y011219D02*
X007093Y011219D01*
X007413Y011219D02*
X007520Y011326D01*
X007520Y011646D01*
X007627Y011646D02*
X007734Y011540D01*
X007734Y011433D01*
X007627Y011646D02*
X007093Y011646D01*
X006986Y012508D02*
X006879Y012615D01*
X006879Y012829D01*
X006986Y012935D01*
X007093Y012935D01*
X007520Y012508D01*
X007520Y012935D01*
X007520Y013153D02*
X007520Y013260D01*
X007413Y013260D01*
X007413Y013153D01*
X007520Y013153D01*
X007413Y013475D02*
X007520Y013582D01*
X007520Y013795D01*
X007413Y013902D01*
X007306Y013902D01*
X007200Y013795D01*
X007200Y013689D01*
X007200Y013795D02*
X007093Y013902D01*
X006986Y013902D01*
X006879Y013795D01*
X006879Y013582D01*
X006986Y013475D01*
X007093Y010038D02*
X007520Y010038D01*
D11*
X004725Y009533D02*
X004725Y006833D01*
X004723Y006774D01*
X004717Y006716D01*
X004708Y006657D01*
X004694Y006600D01*
X004677Y006544D01*
X004656Y006489D01*
X004632Y006435D01*
X004604Y006383D01*
X004573Y006333D01*
X004539Y006285D01*
X004502Y006240D01*
X004461Y006197D01*
X004418Y006156D01*
X004373Y006119D01*
X004325Y006085D01*
X004275Y006054D01*
X004223Y006026D01*
X004169Y006002D01*
X004114Y005981D01*
X004058Y005964D01*
X004001Y005950D01*
X003942Y005941D01*
X003884Y005935D01*
X003825Y005933D01*
X003766Y005935D01*
X003708Y005941D01*
X003649Y005950D01*
X003592Y005964D01*
X003536Y005981D01*
X003481Y006002D01*
X003427Y006026D01*
X003375Y006054D01*
X003325Y006085D01*
X003277Y006119D01*
X003232Y006156D01*
X003189Y006197D01*
X003148Y006240D01*
X003111Y006285D01*
X003077Y006333D01*
X003046Y006383D01*
X003018Y006435D01*
X002994Y006489D01*
X002973Y006544D01*
X002956Y006600D01*
X002942Y006657D01*
X002933Y006716D01*
X002927Y006774D01*
X002925Y006833D01*
X002925Y009533D01*
X002927Y009592D01*
X002933Y009650D01*
X002942Y009709D01*
X002956Y009766D01*
X002973Y009822D01*
X002994Y009877D01*
X003018Y009931D01*
X003046Y009983D01*
X003077Y010033D01*
X003111Y010081D01*
X003148Y010126D01*
X003189Y010169D01*
X003232Y010210D01*
X003277Y010247D01*
X003325Y010281D01*
X003375Y010312D01*
X003427Y010340D01*
X003481Y010364D01*
X003536Y010385D01*
X003592Y010402D01*
X003649Y010416D01*
X003708Y010425D01*
X003766Y010431D01*
X003825Y010433D01*
X003884Y010431D01*
X003942Y010425D01*
X004001Y010416D01*
X004058Y010402D01*
X004114Y010385D01*
X004169Y010364D01*
X004223Y010340D01*
X004275Y010312D01*
X004325Y010281D01*
X004373Y010247D01*
X004418Y010210D01*
X004461Y010169D01*
X004502Y010126D01*
X004539Y010081D01*
X004573Y010033D01*
X004604Y009983D01*
X004632Y009931D01*
X004656Y009877D01*
X004677Y009822D01*
X004694Y009766D01*
X004708Y009709D01*
X004717Y009650D01*
X004723Y009592D01*
X004725Y009533D01*
X002775Y005608D02*
X002275Y005608D01*
X002025Y005358D01*
X002025Y004858D01*
X002275Y004608D01*
X002775Y004608D01*
X003025Y004858D01*
X003025Y005358D01*
X002775Y005608D01*
X011381Y005428D02*
X011381Y005980D01*
X011499Y006255D02*
X011775Y006255D01*
X011539Y006491D01*
X012011Y006491D01*
X011775Y006255D01*
X012051Y006255D01*
X012169Y005980D02*
X012169Y005428D01*
X011381Y005428D01*
X011381Y004898D02*
X011381Y004347D01*
X011539Y004071D02*
X011775Y003835D01*
X012011Y004071D01*
X011539Y004071D01*
X011499Y003835D02*
X011775Y003835D01*
X012051Y003835D01*
X012169Y003560D02*
X012169Y003008D01*
X011381Y003008D01*
X011381Y003560D01*
X011381Y002478D02*
X011381Y001927D01*
X011539Y001651D02*
X011775Y001415D01*
X012011Y001651D01*
X011539Y001651D01*
X011499Y001415D02*
X011775Y001415D01*
X012051Y001415D01*
X012169Y001140D02*
X012169Y000588D01*
X011381Y000588D01*
X011381Y001140D01*
X012169Y001927D02*
X012169Y002478D01*
X011381Y002478D01*
X012169Y004347D02*
X012169Y004898D01*
X011381Y004898D01*
X011381Y006767D02*
X011381Y007318D01*
X012169Y007318D01*
X012169Y006767D01*
X012169Y007848D02*
X011381Y007848D01*
X011381Y008400D01*
X011499Y008675D02*
X011775Y008675D01*
X011539Y008911D01*
X012011Y008911D01*
X011775Y008675D01*
X012051Y008675D01*
X012169Y008400D02*
X012169Y007848D01*
X012169Y009187D02*
X012169Y009738D01*
X011381Y009738D01*
X011381Y009187D01*
X011381Y010268D02*
X011381Y010820D01*
X011499Y011095D02*
X011775Y011095D01*
X011539Y011331D01*
X012011Y011331D01*
X011775Y011095D01*
X012051Y011095D01*
X012169Y010820D02*
X012169Y010268D01*
X011381Y010268D01*
X011381Y011607D02*
X011381Y012158D01*
X012169Y012158D01*
X012169Y011607D01*
X012169Y012688D02*
X011381Y012688D01*
X011381Y013240D01*
X011499Y013515D02*
X011775Y013515D01*
X011539Y013751D01*
X012011Y013751D01*
X011775Y013515D01*
X012051Y013515D01*
X012169Y013240D02*
X012169Y012688D01*
X012169Y014027D02*
X012169Y014578D01*
X011381Y014578D01*
X011381Y014027D01*
X011381Y015108D02*
X011381Y015660D01*
X011499Y015935D02*
X011775Y015935D01*
X011539Y016171D01*
X012011Y016171D01*
X011775Y015935D01*
X012051Y015935D01*
X012169Y015660D02*
X012169Y015108D01*
X011381Y015108D01*
X011381Y016447D02*
X011381Y016998D01*
X012169Y016998D01*
X012169Y016447D01*
X012169Y017528D02*
X011381Y017528D01*
X011381Y018080D01*
X011499Y018355D02*
X011775Y018355D01*
X011539Y018591D01*
X012011Y018591D01*
X011775Y018355D01*
X012051Y018355D01*
X012169Y018080D02*
X012169Y017528D01*
X012169Y018867D02*
X012169Y019418D01*
X011381Y019418D01*
X011381Y018867D01*
X011381Y019948D02*
X011381Y020500D01*
X011499Y020775D02*
X011775Y020775D01*
X011539Y021011D01*
X012011Y021011D01*
X011775Y020775D01*
X012051Y020775D01*
X012169Y020500D02*
X012169Y019948D01*
X011381Y019948D01*
X011381Y021287D02*
X011381Y021838D01*
X012169Y021838D01*
X012169Y021287D01*
X012169Y022368D02*
X011381Y022368D01*
X011381Y022920D01*
X011499Y023195D02*
X011775Y023195D01*
X011539Y023431D01*
X012011Y023431D01*
X011775Y023195D01*
X012051Y023195D01*
X012169Y022920D02*
X012169Y022368D01*
X012169Y023707D02*
X012169Y024258D01*
X011381Y024258D01*
X011381Y023707D01*
X011381Y024788D02*
X011381Y025340D01*
X011499Y025615D02*
X011775Y025615D01*
X011539Y025851D01*
X012011Y025851D01*
X011775Y025615D01*
X012051Y025615D01*
X012169Y025340D02*
X012169Y024788D01*
X011381Y024788D01*
X011381Y026127D02*
X011381Y026678D01*
X012169Y026678D01*
X012169Y026127D01*
X012169Y027208D02*
X011381Y027208D01*
X011381Y027760D01*
X011499Y028035D02*
X011775Y028035D01*
X011539Y028271D01*
X012011Y028271D01*
X011775Y028035D01*
X012051Y028035D01*
X012169Y027760D02*
X012169Y027208D01*
X012169Y028547D02*
X012169Y029098D01*
X011381Y029098D01*
X011381Y028547D01*
X008175Y028783D02*
X008175Y028283D01*
X007925Y028033D01*
X007425Y028033D01*
X007175Y028283D01*
X006925Y028033D01*
X006425Y028033D01*
X006175Y028283D01*
X005925Y028033D01*
X005425Y028033D01*
X005175Y028283D01*
X005175Y028783D01*
X005425Y029033D01*
X005925Y029033D01*
X006175Y028783D01*
X006425Y029033D01*
X006925Y029033D01*
X007175Y028783D01*
X007425Y029033D01*
X007925Y029033D01*
X008175Y028783D01*
X003300Y028783D02*
X003300Y028283D01*
X003050Y028033D01*
X002550Y028033D01*
X002300Y028283D01*
X002050Y028033D01*
X001550Y028033D01*
X001300Y028283D01*
X001300Y028783D01*
X001550Y029033D01*
X002050Y029033D01*
X002300Y028783D01*
X002550Y029033D01*
X003050Y029033D01*
X003300Y028783D01*
X007156Y024828D02*
X007156Y024277D01*
X007314Y024001D02*
X007550Y023765D01*
X007786Y024001D01*
X007314Y024001D01*
X007274Y023765D02*
X007550Y023765D01*
X007826Y023765D01*
X007944Y023490D02*
X007944Y022938D01*
X007156Y022938D01*
X007156Y023490D01*
X006456Y023129D02*
X006456Y022952D01*
X006456Y023129D02*
X004644Y023129D01*
X004644Y022952D01*
X005156Y022952D02*
X005156Y022165D01*
X004644Y022165D02*
X004644Y021987D01*
X006456Y021987D01*
X006456Y022165D01*
X006985Y020577D02*
X006985Y020239D01*
X006531Y020089D02*
X006319Y020089D01*
X005865Y020239D02*
X005865Y020577D01*
X003750Y019933D02*
X003750Y021633D01*
X002955Y021983D02*
X002150Y021983D01*
X001350Y021633D02*
X001350Y019933D01*
X002150Y019583D02*
X002943Y019583D01*
X001850Y020783D02*
X001852Y020835D01*
X001858Y020887D01*
X001868Y020939D01*
X001881Y020989D01*
X001898Y021039D01*
X001919Y021087D01*
X001944Y021133D01*
X001972Y021177D01*
X002003Y021219D01*
X002037Y021259D01*
X002074Y021296D01*
X002114Y021330D01*
X002156Y021361D01*
X002200Y021389D01*
X002246Y021414D01*
X002294Y021435D01*
X002344Y021452D01*
X002394Y021465D01*
X002446Y021475D01*
X002498Y021481D01*
X002550Y021483D01*
X002602Y021481D01*
X002654Y021475D01*
X002706Y021465D01*
X002756Y021452D01*
X002806Y021435D01*
X002854Y021414D01*
X002900Y021389D01*
X002944Y021361D01*
X002986Y021330D01*
X003026Y021296D01*
X003063Y021259D01*
X003097Y021219D01*
X003128Y021177D01*
X003156Y021133D01*
X003181Y021087D01*
X003202Y021039D01*
X003219Y020989D01*
X003232Y020939D01*
X003242Y020887D01*
X003248Y020835D01*
X003250Y020783D01*
X003248Y020731D01*
X003242Y020679D01*
X003232Y020627D01*
X003219Y020577D01*
X003202Y020527D01*
X003181Y020479D01*
X003156Y020433D01*
X003128Y020389D01*
X003097Y020347D01*
X003063Y020307D01*
X003026Y020270D01*
X002986Y020236D01*
X002944Y020205D01*
X002900Y020177D01*
X002854Y020152D01*
X002806Y020131D01*
X002756Y020114D01*
X002706Y020101D01*
X002654Y020091D01*
X002602Y020085D01*
X002550Y020083D01*
X002498Y020085D01*
X002446Y020091D01*
X002394Y020101D01*
X002344Y020114D01*
X002294Y020131D01*
X002246Y020152D01*
X002200Y020177D01*
X002156Y020205D01*
X002114Y020236D01*
X002074Y020270D01*
X002037Y020307D01*
X002003Y020347D01*
X001972Y020389D01*
X001944Y020433D01*
X001919Y020479D01*
X001898Y020527D01*
X001881Y020577D01*
X001868Y020627D01*
X001858Y020679D01*
X001852Y020731D01*
X001850Y020783D01*
X007156Y024828D02*
X007944Y024828D01*
X007944Y024277D01*
X007881Y018343D02*
X008219Y018343D01*
X008369Y017889D02*
X008369Y017678D01*
X008219Y017223D02*
X007881Y017223D01*
D12*
X002437Y023839D02*
X001413Y023839D01*
X001413Y026477D01*
X002437Y026477D01*
X002437Y023839D01*
M02*
