G75*
G70*
%OFA0B0*%
%FSLAX24Y24*%
%IPPOS*%
%LPD*%
%AMOC8*
5,1,8,0,0,1.08239X$1,22.5*
%
%ADD10R,0.0297X0.0552*%
%ADD11R,0.0552X0.0297*%
%ADD12R,0.0631X0.0552*%
%ADD13R,0.0710X0.0789*%
%ADD14R,0.0580X0.0659*%
%ADD15R,0.0395X0.0474*%
%ADD16R,0.0671X0.0356*%
%ADD17C,0.0434*%
%ADD18C,0.0600*%
%ADD19C,0.0820*%
%ADD20R,0.0789X0.0710*%
%ADD21OC8,0.0820*%
%ADD22C,0.0595*%
%ADD23C,0.1202*%
%ADD24C,0.0730*%
%ADD25R,0.0476X0.0476*%
%ADD26R,0.0490X0.0490*%
D10*
X006051Y019896D03*
X006799Y019896D03*
X006799Y020920D03*
X006425Y020920D03*
X006051Y020920D03*
D11*
X007538Y018157D03*
X007538Y017783D03*
X007538Y017409D03*
X008562Y017409D03*
X008562Y018157D03*
D12*
X011775Y017883D03*
X011775Y019064D03*
X011775Y020303D03*
X011775Y021484D03*
X011775Y022723D03*
X011775Y023904D03*
X011775Y025143D03*
X011775Y026324D03*
X011775Y027563D03*
X011775Y028744D03*
X007550Y024474D03*
X007550Y023293D03*
X011775Y016644D03*
X011775Y015463D03*
X011775Y014224D03*
X011775Y013043D03*
X011775Y011804D03*
X011775Y010623D03*
X011775Y009384D03*
X011775Y008203D03*
X011775Y006964D03*
X011775Y005783D03*
X011775Y004544D03*
X011775Y003363D03*
X011775Y002124D03*
X011775Y000943D03*
D13*
X010976Y000983D03*
X009874Y000983D03*
X009844Y003333D03*
X010946Y003333D03*
X010936Y005758D03*
X009834Y005758D03*
X009834Y008158D03*
X010936Y008158D03*
X010956Y010558D03*
X009854Y010558D03*
X009874Y012958D03*
X010976Y012958D03*
X010946Y015383D03*
X009844Y015383D03*
X008601Y016408D03*
X007499Y016408D03*
X006726Y015658D03*
X005624Y015658D03*
X004776Y018233D03*
X003674Y018233D03*
X007499Y019283D03*
X008601Y019283D03*
X008626Y020383D03*
X007524Y020383D03*
X007499Y021833D03*
X008601Y021833D03*
X009854Y022758D03*
X010956Y022758D03*
X010936Y020258D03*
X009834Y020258D03*
X009864Y017858D03*
X010966Y017858D03*
X004701Y012158D03*
X004701Y011183D03*
X003599Y011183D03*
X002651Y011183D03*
X001549Y011183D03*
X001549Y012183D03*
X002651Y012183D03*
X003599Y012158D03*
X003649Y001233D03*
X004751Y001233D03*
X004949Y024233D03*
X006051Y024233D03*
X007524Y025858D03*
X008626Y025858D03*
X009824Y025158D03*
X010926Y025158D03*
X010946Y027558D03*
X009844Y027558D03*
D14*
X006396Y022558D03*
X004704Y022558D03*
D15*
X002358Y023524D03*
X001492Y023524D03*
X001492Y026792D03*
X002358Y026792D03*
D16*
X002811Y026044D03*
X002811Y024863D03*
X002811Y024273D03*
D17*
X001925Y024568D03*
X001925Y025749D03*
D18*
X005465Y014308D02*
X005985Y014308D01*
X005985Y013308D02*
X005465Y013308D01*
X005465Y012308D02*
X005985Y012308D01*
X005985Y011308D02*
X005465Y011308D01*
X005465Y010308D02*
X005985Y010308D01*
X005985Y009308D02*
X005465Y009308D01*
X005465Y008308D02*
X005985Y008308D01*
X005985Y007308D02*
X005465Y007308D01*
X005465Y006308D02*
X005985Y006308D01*
X005985Y005308D02*
X005465Y005308D01*
X005465Y004308D02*
X005985Y004308D01*
X005985Y003308D02*
X005465Y003308D01*
X005465Y002308D02*
X005985Y002308D01*
X005985Y001308D02*
X005465Y001308D01*
X008465Y001308D02*
X008985Y001308D01*
X008985Y002308D02*
X008465Y002308D01*
X008465Y003308D02*
X008985Y003308D01*
X008985Y004308D02*
X008465Y004308D01*
X008465Y005308D02*
X008985Y005308D01*
X008985Y006308D02*
X008465Y006308D01*
X008465Y007308D02*
X008985Y007308D01*
X008985Y008308D02*
X008465Y008308D01*
X008465Y009308D02*
X008985Y009308D01*
X008985Y010308D02*
X008465Y010308D01*
X008465Y011308D02*
X008985Y011308D01*
X008985Y012308D02*
X008465Y012308D01*
X008465Y013308D02*
X008985Y013308D01*
X008985Y014308D02*
X008465Y014308D01*
D19*
X003440Y019503D03*
X001660Y019503D03*
X001660Y022063D03*
X003440Y022063D03*
X002800Y028533D03*
X001800Y028533D03*
X005675Y028533D03*
X006675Y028533D03*
X007675Y028533D03*
X002525Y005108D03*
D20*
X001575Y006107D03*
X001575Y007210D03*
X001600Y008257D03*
X001600Y009360D03*
D21*
X001550Y001083D03*
X002550Y001083D03*
X002550Y002083D03*
X001550Y002083D03*
X001550Y003083D03*
X002550Y003083D03*
X002550Y004083D03*
X001550Y004083D03*
D22*
X004408Y014228D03*
X003935Y014543D03*
X004408Y014858D03*
X003935Y015173D03*
X004408Y015488D03*
D23*
X002400Y016295D03*
X002400Y013421D03*
D24*
X003825Y009183D03*
X003825Y007183D03*
D25*
X002300Y007208D03*
X002300Y008308D03*
X003300Y012883D03*
X004200Y012858D03*
X004975Y017133D03*
X005725Y018183D03*
X002225Y018183D03*
X002225Y017183D03*
X009800Y021008D03*
X009900Y023558D03*
X009800Y024358D03*
X009850Y026758D03*
X004225Y024933D03*
X003150Y025433D03*
X009900Y008858D03*
X009900Y006608D03*
D26*
X009850Y018808D03*
M02*
