G75*
G70*
%OFA0B0*%
%FSLAX24Y24*%
%IPPOS*%
%LPD*%
%AMOC8*
5,1,8,0,0,1.08239X$1,22.5*
%
%ADD10C,0.0040*%
%ADD11C,0.0520*%
%ADD12C,0.0740*%
%ADD13OC8,0.0740*%
%ADD14C,0.0515*%
%ADD15C,0.1122*%
%ADD16C,0.0650*%
%ADD17R,0.0396X0.0396*%
%ADD18C,0.0160*%
%ADD19C,0.0080*%
%ADD20R,0.0410X0.0410*%
D10*
X007297Y016641D02*
X007373Y016717D01*
X007373Y016948D01*
X007450Y016948D02*
X007220Y016948D01*
X007220Y016717D01*
X007297Y016641D01*
X007527Y016717D02*
X007527Y016871D01*
X007450Y016948D01*
X007450Y017101D02*
X007297Y017101D01*
X007220Y017178D01*
X007220Y017408D01*
X007143Y017408D02*
X007527Y017408D01*
X007527Y017178D01*
X007450Y017101D01*
X007067Y017255D02*
X007067Y017331D01*
X007143Y017408D01*
X007220Y017562D02*
X007220Y017715D01*
X007220Y017638D02*
X007527Y017638D01*
X007527Y017562D01*
X007680Y017638D02*
X007757Y017638D01*
X007527Y017868D02*
X007527Y018022D01*
X007604Y017945D02*
X007297Y017945D01*
X007220Y018022D01*
X007220Y018636D02*
X007220Y018866D01*
X007297Y018943D01*
X007450Y018943D01*
X007527Y018866D01*
X007527Y018636D01*
X007067Y018636D01*
X007220Y019096D02*
X007220Y019250D01*
X007220Y019173D02*
X007527Y019173D01*
X007527Y019096D01*
X007680Y019173D02*
X007757Y019173D01*
X007527Y019403D02*
X007527Y019633D01*
X007450Y019710D01*
X007220Y019710D01*
X007220Y019863D02*
X007680Y019863D01*
X007527Y020094D02*
X007373Y019863D01*
X007220Y020094D01*
X007297Y020247D02*
X007220Y020324D01*
X007220Y020554D01*
X007143Y020554D02*
X007067Y020477D01*
X007067Y020401D01*
X007143Y020554D02*
X007527Y020554D01*
X007527Y020247D02*
X007297Y020247D01*
X007220Y021168D02*
X007527Y021475D01*
X007604Y021475D01*
X007680Y021398D01*
X007680Y021245D01*
X007604Y021168D01*
X007220Y021168D02*
X007220Y021475D01*
X007220Y019403D02*
X007527Y019403D01*
D11*
X008465Y014308D02*
X008985Y014308D01*
X008985Y013308D02*
X008465Y013308D01*
X008465Y012308D02*
X008985Y012308D01*
X008985Y011308D02*
X008465Y011308D01*
X008465Y010308D02*
X008985Y010308D01*
X008985Y009308D02*
X008465Y009308D01*
X008465Y008308D02*
X008985Y008308D01*
X008985Y007308D02*
X008465Y007308D01*
X008465Y006308D02*
X008985Y006308D01*
X008985Y005308D02*
X008465Y005308D01*
X008465Y004308D02*
X008985Y004308D01*
X008985Y003308D02*
X008465Y003308D01*
X008465Y002308D02*
X008985Y002308D01*
X008985Y001308D02*
X008465Y001308D01*
X005985Y001308D02*
X005465Y001308D01*
X005465Y002308D02*
X005985Y002308D01*
X005985Y003308D02*
X005465Y003308D01*
X005465Y004308D02*
X005985Y004308D01*
X005985Y005308D02*
X005465Y005308D01*
X005465Y006308D02*
X005985Y006308D01*
X005985Y007308D02*
X005465Y007308D01*
X005465Y008308D02*
X005985Y008308D01*
X005985Y009308D02*
X005465Y009308D01*
X005465Y010308D02*
X005985Y010308D01*
X005985Y011308D02*
X005465Y011308D01*
X005465Y012308D02*
X005985Y012308D01*
X005985Y013308D02*
X005465Y013308D01*
X005465Y014308D02*
X005985Y014308D01*
D12*
X003440Y019503D03*
X001660Y019503D03*
X001660Y022063D03*
X003440Y022063D03*
X002800Y028533D03*
X001800Y028533D03*
X005675Y028533D03*
X006675Y028533D03*
X007675Y028533D03*
X002525Y005108D03*
D13*
X001550Y001083D03*
X002550Y001083D03*
X002550Y002083D03*
X001550Y002083D03*
X001550Y003083D03*
X002550Y003083D03*
X002550Y004083D03*
X001550Y004083D03*
D14*
X004408Y014228D03*
X003935Y014543D03*
X004408Y014858D03*
X003935Y015173D03*
X004408Y015488D03*
D15*
X002400Y016295D03*
X002400Y013421D03*
D16*
X003825Y009183D03*
X003825Y007183D03*
D17*
X002300Y007208D03*
X002300Y008308D03*
X003300Y012883D03*
X004200Y012858D03*
X004975Y017133D03*
X005725Y018183D03*
X002225Y018183D03*
X002225Y017183D03*
X009800Y021008D03*
X009900Y023558D03*
X009800Y024358D03*
X009850Y026758D03*
X004225Y024933D03*
X003150Y025433D03*
X009900Y008858D03*
X009900Y006608D03*
D18*
X010500Y006608D01*
X010700Y006408D01*
X010700Y003358D01*
X010150Y002808D01*
X007700Y002808D01*
X007250Y002308D01*
X005725Y002308D01*
X006700Y002858D02*
X002775Y002858D01*
X002550Y003083D01*
X003400Y003583D02*
X004800Y003558D01*
X005050Y003808D01*
X009400Y003808D01*
X009750Y004158D01*
X009750Y004858D01*
X009300Y005308D01*
X008725Y005308D01*
X008261Y005808D02*
X008159Y005851D01*
X008007Y006002D01*
X007925Y006201D01*
X007925Y006416D01*
X008007Y006614D01*
X008159Y006766D01*
X008261Y006808D01*
X008159Y006851D01*
X008011Y006998D01*
X007628Y006998D01*
X007496Y007053D01*
X007395Y007154D01*
X006601Y007948D01*
X006389Y007948D01*
X006291Y007851D01*
X006092Y007768D01*
X005358Y007768D01*
X005159Y007851D01*
X005085Y007925D01*
X005085Y007532D01*
X005089Y007539D01*
X005129Y007595D01*
X005178Y007644D01*
X005234Y007685D01*
X005296Y007716D01*
X005362Y007737D01*
X005430Y007748D01*
X005725Y007748D01*
X005725Y007308D01*
X005725Y006868D01*
X006020Y006868D01*
X006088Y006879D01*
X006154Y006901D01*
X006216Y006932D01*
X006272Y006973D01*
X006321Y007022D01*
X006361Y007078D01*
X006393Y007139D01*
X006414Y007205D01*
X006425Y007274D01*
X006425Y007308D01*
X005725Y007308D01*
X005725Y007308D01*
X005725Y006868D01*
X005549Y006868D01*
X005569Y006848D01*
X006092Y006848D01*
X006291Y006766D01*
X006443Y006614D01*
X006525Y006416D01*
X006525Y006201D01*
X006443Y006002D01*
X006291Y005851D01*
X006189Y005808D01*
X006291Y005766D01*
X006443Y005614D01*
X006525Y005416D01*
X006525Y005201D01*
X006511Y005168D01*
X007938Y005168D01*
X007925Y005201D01*
X007925Y005416D01*
X008007Y005614D01*
X008159Y005766D01*
X008261Y005808D01*
X008124Y005731D02*
X006326Y005731D01*
X006330Y005889D02*
X008120Y005889D01*
X007988Y006048D02*
X006462Y006048D01*
X006525Y006206D02*
X007925Y006206D01*
X007925Y006365D02*
X006525Y006365D01*
X006480Y006523D02*
X007970Y006523D01*
X008075Y006682D02*
X006375Y006682D01*
X006112Y006840D02*
X008184Y006840D01*
X007627Y006999D02*
X006298Y006999D01*
X006399Y007157D02*
X007392Y007157D01*
X007233Y007316D02*
X006425Y007316D01*
X006425Y007308D02*
X006425Y007343D01*
X006414Y007411D01*
X006393Y007477D01*
X006361Y007539D01*
X006321Y007595D01*
X006272Y007644D01*
X006216Y007685D01*
X006154Y007716D01*
X006088Y007737D01*
X006020Y007748D01*
X005725Y007748D01*
X005725Y007308D01*
X005725Y007308D01*
X005109Y007308D01*
X005109Y007308D01*
X005725Y007308D01*
X005725Y007308D01*
X006425Y007308D01*
X006394Y007474D02*
X007075Y007474D01*
X006916Y007633D02*
X006283Y007633D01*
X006148Y007791D02*
X006758Y007791D01*
X006750Y008308D02*
X007700Y007358D01*
X008675Y007358D01*
X008725Y007308D01*
X008725Y007868D02*
X008430Y007868D01*
X008362Y007879D01*
X008296Y007901D01*
X008234Y007932D01*
X008178Y007973D01*
X008129Y008022D01*
X008089Y008078D01*
X008057Y008139D01*
X008036Y008205D01*
X008025Y008274D01*
X008025Y008308D01*
X008725Y008308D01*
X008725Y007868D01*
X009020Y007868D01*
X009088Y007879D01*
X009154Y007901D01*
X009216Y007932D01*
X009272Y007973D01*
X009321Y008022D01*
X009361Y008078D01*
X009393Y008139D01*
X009414Y008205D01*
X009425Y008274D01*
X009425Y008308D01*
X008725Y008308D01*
X008725Y008308D01*
X008725Y007868D01*
X008725Y007950D02*
X008725Y007950D01*
X008725Y008108D02*
X008725Y008108D01*
X008725Y008267D02*
X008725Y008267D01*
X008725Y008308D02*
X008725Y008308D01*
X008725Y008308D01*
X008025Y008308D01*
X008025Y008343D01*
X008036Y008411D01*
X008057Y008477D01*
X008089Y008539D01*
X008129Y008595D01*
X008178Y008644D01*
X008234Y008685D01*
X008296Y008716D01*
X008362Y008737D01*
X008430Y008748D01*
X008725Y008748D01*
X008725Y008308D01*
X009425Y008308D01*
X009425Y008343D01*
X009414Y008411D01*
X009393Y008477D01*
X009361Y008539D01*
X009321Y008595D01*
X009272Y008644D01*
X009216Y008685D01*
X009154Y008716D01*
X009088Y008737D01*
X009020Y008748D01*
X008725Y008748D01*
X008725Y008308D01*
X008725Y008308D01*
X008725Y008425D02*
X008725Y008425D01*
X008725Y008584D02*
X008725Y008584D01*
X008725Y008742D02*
X008725Y008742D01*
X009057Y008742D02*
X009422Y008742D01*
X009422Y008605D02*
X009422Y008982D01*
X009291Y008851D01*
X009092Y008768D01*
X008358Y008768D01*
X008159Y008851D01*
X008007Y009002D01*
X007925Y009201D01*
X007925Y009416D01*
X008007Y009614D01*
X008159Y009766D01*
X008261Y009808D01*
X008159Y009851D01*
X008007Y010002D01*
X007925Y010201D01*
X007925Y010416D01*
X008007Y010614D01*
X008159Y010766D01*
X008261Y010808D01*
X008159Y010851D01*
X008007Y011002D01*
X007925Y011201D01*
X007925Y011416D01*
X008007Y011614D01*
X008159Y011766D01*
X008261Y011808D01*
X008159Y011851D01*
X008007Y012002D01*
X007925Y012201D01*
X007925Y012416D01*
X007966Y012516D01*
X007454Y012003D01*
X007322Y011948D01*
X006389Y011948D01*
X006291Y011851D01*
X006189Y011808D01*
X006291Y011766D01*
X006443Y011614D01*
X006525Y011416D01*
X006525Y011201D01*
X006443Y011002D01*
X006291Y010851D01*
X006189Y010808D01*
X006291Y010766D01*
X006443Y010614D01*
X006525Y010416D01*
X006525Y010201D01*
X006443Y010002D01*
X006291Y009851D01*
X006189Y009808D01*
X006291Y009766D01*
X006443Y009614D01*
X006525Y009416D01*
X006525Y009201D01*
X006443Y009002D01*
X006291Y008851D01*
X006189Y008808D01*
X006291Y008766D01*
X006389Y008668D01*
X006822Y008668D01*
X006954Y008614D01*
X007849Y007718D01*
X008111Y007718D01*
X008159Y007766D01*
X008358Y007848D01*
X009092Y007848D01*
X009291Y007766D01*
X009443Y007614D01*
X009525Y007416D01*
X009525Y007201D01*
X009443Y007002D01*
X009291Y006851D01*
X009189Y006808D01*
X009291Y006766D01*
X009422Y006635D01*
X009422Y006862D01*
X009465Y006965D01*
X009543Y007044D01*
X009646Y007086D01*
X010154Y007086D01*
X010257Y007044D01*
X010332Y006968D01*
X010572Y006968D01*
X010704Y006914D01*
X010805Y006812D01*
X010840Y006777D01*
X010840Y008209D01*
X010551Y008498D01*
X010332Y008498D01*
X010257Y008423D01*
X010154Y008380D01*
X009646Y008380D01*
X009543Y008423D01*
X009465Y008502D01*
X009422Y008605D01*
X009430Y008584D02*
X009329Y008584D01*
X009410Y008425D02*
X009541Y008425D01*
X009424Y008267D02*
X010782Y008267D01*
X010840Y008108D02*
X009377Y008108D01*
X009240Y007950D02*
X010840Y007950D01*
X010840Y007791D02*
X009230Y007791D01*
X009424Y007633D02*
X010840Y007633D01*
X010840Y007474D02*
X009501Y007474D01*
X009525Y007316D02*
X010840Y007316D01*
X010840Y007157D02*
X009507Y007157D01*
X009498Y006999D02*
X009439Y006999D01*
X009422Y006840D02*
X009266Y006840D01*
X009375Y006682D02*
X009422Y006682D01*
X010302Y006999D02*
X010840Y006999D01*
X010840Y006840D02*
X010777Y006840D01*
X011200Y008358D02*
X010700Y008858D01*
X009900Y008858D01*
X009422Y008901D02*
X009341Y008901D01*
X008393Y008742D02*
X006315Y008742D01*
X006341Y008901D02*
X008109Y008901D01*
X007984Y009059D02*
X006466Y009059D01*
X006525Y009218D02*
X007925Y009218D01*
X007925Y009376D02*
X006525Y009376D01*
X006476Y009535D02*
X007974Y009535D01*
X008086Y009693D02*
X006364Y009693D01*
X006292Y009852D02*
X008158Y009852D01*
X008004Y010010D02*
X006446Y010010D01*
X006512Y010169D02*
X007938Y010169D01*
X007925Y010327D02*
X006525Y010327D01*
X006496Y010486D02*
X007954Y010486D01*
X008037Y010644D02*
X006413Y010644D01*
X006202Y010803D02*
X008248Y010803D01*
X008048Y010961D02*
X006402Y010961D01*
X006491Y011120D02*
X007959Y011120D01*
X007925Y011278D02*
X006525Y011278D01*
X006516Y011437D02*
X007934Y011437D01*
X007999Y011595D02*
X006451Y011595D01*
X006303Y011754D02*
X008147Y011754D01*
X008097Y011912D02*
X006353Y011912D01*
X005725Y012308D02*
X007250Y012308D01*
X007900Y012958D01*
X007900Y014958D01*
X009000Y016058D01*
X009000Y023558D01*
X009800Y024358D01*
X009322Y024389D02*
X009322Y024612D01*
X009365Y024715D01*
X009443Y024794D01*
X009546Y024836D01*
X010054Y024836D01*
X010157Y024794D01*
X010235Y024715D01*
X010278Y024612D01*
X010278Y024218D01*
X011272Y024218D01*
X011404Y024164D01*
X011505Y024062D01*
X011505Y024062D01*
X012005Y023562D01*
X012045Y023466D01*
X012045Y029203D01*
X001205Y029203D01*
X001205Y022373D01*
X001240Y022422D01*
X001302Y022483D01*
X001372Y022534D01*
X001449Y022573D01*
X001531Y022600D01*
X001617Y022613D01*
X001640Y022613D01*
X001640Y022083D01*
X001680Y022083D01*
X002210Y022083D01*
X002210Y022107D01*
X002196Y022192D01*
X002170Y022274D01*
X002130Y022352D01*
X002080Y022422D01*
X002018Y022483D01*
X001948Y022534D01*
X001871Y022573D01*
X001789Y022600D01*
X001703Y022613D01*
X001680Y022613D01*
X001680Y022083D01*
X001680Y022043D01*
X001680Y021513D01*
X001703Y021513D01*
X001789Y021527D01*
X001871Y021554D01*
X001948Y021593D01*
X002018Y021644D01*
X002080Y021705D01*
X002130Y021775D01*
X002170Y021852D01*
X002196Y021935D01*
X002210Y022020D01*
X002210Y022043D01*
X001680Y022043D01*
X001640Y022043D01*
X001640Y021513D01*
X001617Y021513D01*
X001531Y021527D01*
X001449Y021554D01*
X001372Y021593D01*
X001302Y021644D01*
X001240Y021705D01*
X001205Y021754D01*
X001205Y019813D01*
X001240Y019862D01*
X001302Y019923D01*
X001372Y019974D01*
X001449Y020013D01*
X001531Y020040D01*
X001617Y020053D01*
X001640Y020053D01*
X001640Y019523D01*
X001680Y019523D01*
X002210Y019523D01*
X002210Y019547D01*
X002196Y019632D01*
X002170Y019714D01*
X002130Y019792D01*
X002080Y019862D01*
X002018Y019923D01*
X001948Y019974D01*
X001871Y020013D01*
X001789Y020040D01*
X001703Y020053D01*
X001680Y020053D01*
X001680Y019523D01*
X001680Y019483D01*
X001680Y018953D01*
X001703Y018953D01*
X001789Y018967D01*
X001871Y018994D01*
X001948Y019033D01*
X002018Y019084D01*
X002080Y019145D01*
X002130Y019215D01*
X002170Y019292D01*
X002196Y019375D01*
X002210Y019460D01*
X002210Y019483D01*
X001680Y019483D01*
X001640Y019483D01*
X001640Y018953D01*
X001617Y018953D01*
X001531Y018967D01*
X001449Y018994D01*
X001372Y019033D01*
X001302Y019084D01*
X001240Y019145D01*
X001205Y019194D01*
X001205Y017672D01*
X001420Y017887D01*
X001521Y017989D01*
X001653Y018043D01*
X001747Y018043D01*
X001747Y018437D01*
X001790Y018540D01*
X001868Y018619D01*
X001971Y018661D01*
X002089Y018661D01*
X002793Y019366D01*
X002790Y019374D01*
X002790Y019633D01*
X002889Y019872D01*
X003072Y020054D01*
X003311Y020153D01*
X003569Y020153D01*
X003808Y020054D01*
X003865Y019998D01*
X003865Y021569D01*
X003808Y021512D01*
X003569Y021413D01*
X003311Y021413D01*
X003072Y021512D01*
X002889Y021695D01*
X002790Y021934D01*
X002790Y022193D01*
X002889Y022432D01*
X003072Y022614D01*
X003311Y022713D01*
X003345Y022713D01*
X003345Y026635D01*
X003400Y026767D01*
X003501Y026869D01*
X005028Y028396D01*
X003447Y028396D01*
X003450Y028404D02*
X003450Y028663D01*
X003351Y028902D01*
X003168Y029084D01*
X002929Y029183D01*
X002671Y029183D01*
X002432Y029084D01*
X002249Y028902D01*
X002236Y028869D01*
X002220Y028892D01*
X002158Y028953D01*
X002088Y029004D01*
X002011Y029043D01*
X001929Y029070D01*
X001843Y029083D01*
X001820Y029083D01*
X001820Y028553D01*
X001780Y028553D01*
X001780Y028513D01*
X001820Y028513D01*
X001820Y027983D01*
X001843Y027983D01*
X001929Y027997D01*
X002011Y028024D01*
X002088Y028063D01*
X002158Y028114D01*
X002220Y028175D01*
X002236Y028197D01*
X002249Y028165D01*
X002432Y027982D01*
X002671Y027883D01*
X002929Y027883D01*
X003168Y027982D01*
X003351Y028165D01*
X003450Y028404D01*
X003450Y028555D02*
X005025Y028555D01*
X005025Y028663D02*
X005025Y028404D01*
X005028Y028396D01*
X004870Y028238D02*
X003381Y028238D01*
X003265Y028079D02*
X004712Y028079D01*
X004553Y027921D02*
X003020Y027921D01*
X002580Y027921D02*
X001205Y027921D01*
X001205Y028079D02*
X001489Y028079D01*
X001512Y028063D02*
X001589Y028024D01*
X001671Y027997D01*
X001757Y027983D01*
X001780Y027983D01*
X001780Y028513D01*
X001250Y028513D01*
X001250Y028490D01*
X001264Y028405D01*
X001290Y028322D01*
X001330Y028245D01*
X001380Y028175D01*
X001442Y028114D01*
X001512Y028063D01*
X001335Y028238D02*
X001205Y028238D01*
X001205Y028396D02*
X001266Y028396D01*
X001250Y028553D02*
X001780Y028553D01*
X001780Y029083D01*
X001757Y029083D01*
X001671Y029070D01*
X001589Y029043D01*
X001512Y029004D01*
X001442Y028953D01*
X001380Y028892D01*
X001330Y028822D01*
X001290Y028744D01*
X001264Y028662D01*
X001250Y028577D01*
X001250Y028553D01*
X001250Y028555D02*
X001205Y028555D01*
X001205Y028713D02*
X001280Y028713D01*
X001205Y028872D02*
X001366Y028872D01*
X001205Y029030D02*
X001564Y029030D01*
X001780Y029030D02*
X001820Y029030D01*
X001820Y028872D02*
X001780Y028872D01*
X001780Y028713D02*
X001820Y028713D01*
X001820Y028555D02*
X001780Y028555D01*
X001780Y028396D02*
X001820Y028396D01*
X001820Y028238D02*
X001780Y028238D01*
X001780Y028079D02*
X001820Y028079D01*
X002111Y028079D02*
X002335Y028079D01*
X002234Y028872D02*
X002237Y028872D01*
X002378Y029030D02*
X002036Y029030D01*
X001205Y029189D02*
X012045Y029189D01*
X012045Y029030D02*
X008097Y029030D01*
X008043Y029084D02*
X007804Y029183D01*
X007546Y029183D01*
X007307Y029084D01*
X007124Y028902D01*
X007111Y028869D01*
X007095Y028892D01*
X007033Y028953D01*
X006963Y029004D01*
X006886Y029043D01*
X006804Y029070D01*
X006718Y029083D01*
X006695Y029083D01*
X006695Y028553D01*
X006655Y028553D01*
X006655Y029083D01*
X006632Y029083D01*
X006546Y029070D01*
X006464Y029043D01*
X006387Y029004D01*
X006317Y028953D01*
X006255Y028892D01*
X006239Y028869D01*
X006226Y028902D01*
X006043Y029084D01*
X005804Y029183D01*
X005546Y029183D01*
X005307Y029084D01*
X005124Y028902D01*
X005025Y028663D01*
X005046Y028713D02*
X003429Y028713D01*
X003363Y028872D02*
X005112Y028872D01*
X005253Y029030D02*
X003222Y029030D01*
X004395Y027762D02*
X001205Y027762D01*
X001205Y027604D02*
X004236Y027604D01*
X004078Y027445D02*
X001205Y027445D01*
X001205Y027287D02*
X003919Y027287D01*
X003761Y027128D02*
X001205Y027128D01*
X001205Y026970D02*
X003602Y026970D01*
X003444Y026811D02*
X001205Y026811D01*
X001205Y026653D02*
X003352Y026653D01*
X003345Y026494D02*
X001205Y026494D01*
X001205Y026336D02*
X001625Y026336D01*
X001553Y026306D02*
X001368Y026121D01*
X001268Y025880D01*
X001268Y025618D01*
X001368Y025377D01*
X001553Y025192D01*
X001633Y025158D01*
X001553Y025125D01*
X001368Y024940D01*
X001268Y024699D01*
X001268Y024437D01*
X001368Y024196D01*
X001553Y024011D01*
X001794Y023911D01*
X002056Y023911D01*
X002297Y024011D01*
X002482Y024196D01*
X002582Y024437D01*
X002582Y024699D01*
X002482Y024940D01*
X002297Y025125D01*
X002217Y025158D01*
X002297Y025192D01*
X002482Y025377D01*
X002582Y025618D01*
X002582Y025880D01*
X002482Y026121D01*
X002297Y026306D01*
X002056Y026406D01*
X001794Y026406D01*
X001553Y026306D01*
X001424Y026177D02*
X001205Y026177D01*
X001205Y026019D02*
X001326Y026019D01*
X001268Y025860D02*
X001205Y025860D01*
X001205Y025702D02*
X001268Y025702D01*
X001299Y025543D02*
X001205Y025543D01*
X001205Y025385D02*
X001364Y025385D01*
X001518Y025226D02*
X001205Y025226D01*
X001205Y025068D02*
X001496Y025068D01*
X001355Y024909D02*
X001205Y024909D01*
X001205Y024751D02*
X001290Y024751D01*
X001268Y024592D02*
X001205Y024592D01*
X001205Y024434D02*
X001269Y024434D01*
X001205Y024275D02*
X001335Y024275D01*
X001447Y024117D02*
X001205Y024117D01*
X001205Y023958D02*
X001679Y023958D01*
X002171Y023958D02*
X003345Y023958D01*
X003345Y023800D02*
X001205Y023800D01*
X001205Y023641D02*
X003345Y023641D01*
X003345Y023483D02*
X001205Y023483D01*
X001205Y023324D02*
X003345Y023324D01*
X003400Y023358D02*
X002725Y022683D01*
X002280Y022683D01*
X001660Y022063D01*
X001660Y019503D01*
X001680Y019520D02*
X002790Y019520D01*
X002789Y019362D02*
X002192Y019362D01*
X002122Y019203D02*
X002631Y019203D01*
X002472Y019045D02*
X001965Y019045D01*
X001680Y019045D02*
X001640Y019045D01*
X001640Y019203D02*
X001680Y019203D01*
X001680Y019362D02*
X001640Y019362D01*
X001640Y019679D02*
X001680Y019679D01*
X001680Y019837D02*
X001640Y019837D01*
X001640Y019996D02*
X001680Y019996D01*
X001905Y019996D02*
X003013Y019996D01*
X002875Y019837D02*
X002097Y019837D01*
X002181Y019679D02*
X002809Y019679D01*
X003440Y019503D02*
X002225Y018288D01*
X002225Y018183D01*
X001747Y018252D02*
X001205Y018252D01*
X001205Y018094D02*
X001747Y018094D01*
X001747Y018411D02*
X001205Y018411D01*
X001205Y018569D02*
X001819Y018569D01*
X002155Y018728D02*
X001205Y018728D01*
X001205Y018886D02*
X002314Y018886D01*
X001355Y019045D02*
X001205Y019045D01*
X001205Y019837D02*
X001223Y019837D01*
X001205Y019996D02*
X001415Y019996D01*
X001205Y020154D02*
X003865Y020154D01*
X003865Y020313D02*
X001205Y020313D01*
X001205Y020471D02*
X003865Y020471D01*
X003865Y020630D02*
X001205Y020630D01*
X001205Y020788D02*
X003865Y020788D01*
X003865Y020947D02*
X001205Y020947D01*
X001205Y021105D02*
X003865Y021105D01*
X003865Y021264D02*
X001205Y021264D01*
X001205Y021422D02*
X003289Y021422D01*
X003591Y021422D02*
X003865Y021422D01*
X004585Y021422D02*
X006920Y021422D01*
X006920Y021535D02*
X006920Y021108D01*
X006966Y020998D01*
X007050Y020914D01*
X007160Y020868D01*
X007280Y020868D01*
X007390Y020914D01*
X007412Y020935D01*
X007434Y020914D01*
X007544Y020868D01*
X007663Y020868D01*
X007774Y020914D01*
X007850Y020990D01*
X007850Y020990D01*
X007933Y021073D01*
X007935Y021075D01*
X007953Y021119D01*
X007980Y021185D01*
X007980Y021458D01*
X007935Y021568D01*
X007850Y021652D01*
X007774Y021729D01*
X007663Y021775D01*
X007467Y021775D01*
X007373Y021736D01*
X007280Y021775D01*
X007160Y021775D01*
X007050Y021729D01*
X006966Y021645D01*
X006920Y021535D01*
X006939Y021581D02*
X004585Y021581D01*
X004585Y021739D02*
X007075Y021739D01*
X007365Y021739D02*
X007382Y021739D01*
X007749Y021739D02*
X008290Y021739D01*
X008290Y021581D02*
X007922Y021581D01*
X007980Y021422D02*
X008290Y021422D01*
X008290Y021264D02*
X007980Y021264D01*
X007947Y021105D02*
X008290Y021105D01*
X008290Y020947D02*
X007807Y020947D01*
X007697Y020808D02*
X007587Y020854D01*
X007084Y020854D01*
X006973Y020808D01*
X006897Y020732D01*
X006812Y020647D01*
X006767Y020537D01*
X006767Y020341D01*
X006812Y020231D01*
X006897Y020146D01*
X006922Y020136D01*
X006914Y020094D01*
X006937Y019977D01*
X006940Y019972D01*
X006920Y019923D01*
X006920Y019804D01*
X006927Y019787D01*
X006920Y019770D01*
X006920Y019650D01*
X006959Y019557D01*
X006920Y019463D01*
X006920Y019343D01*
X006927Y019326D01*
X006920Y019309D01*
X006920Y019036D01*
X006943Y018981D01*
X006920Y018926D01*
X006920Y018900D01*
X006897Y018890D01*
X006812Y018806D01*
X006767Y018695D01*
X006767Y018576D01*
X006812Y018466D01*
X006897Y018381D01*
X007007Y018336D01*
X007587Y018336D01*
X007697Y018381D01*
X007781Y018466D01*
X007827Y018576D01*
X007827Y018877D01*
X007927Y018919D01*
X008011Y019003D01*
X008057Y019113D01*
X008057Y019233D01*
X008011Y019343D01*
X007927Y019427D01*
X007827Y019469D01*
X007827Y019599D01*
X007850Y019609D01*
X007935Y019694D01*
X007980Y019804D01*
X007980Y019923D01*
X007935Y020033D01*
X007850Y020118D01*
X007826Y020128D01*
X007818Y020167D01*
X007827Y020187D01*
X007827Y020307D01*
X007788Y020401D01*
X007827Y020494D01*
X007827Y020614D01*
X007781Y020724D01*
X007697Y020808D01*
X007717Y020788D02*
X008290Y020788D01*
X008290Y020630D02*
X007820Y020630D01*
X007817Y020471D02*
X008290Y020471D01*
X008290Y020313D02*
X007824Y020313D01*
X007821Y020154D02*
X008290Y020154D01*
X008290Y019996D02*
X007950Y019996D01*
X007980Y019837D02*
X008290Y019837D01*
X008290Y019679D02*
X007920Y019679D01*
X007827Y019520D02*
X008290Y019520D01*
X008290Y019362D02*
X007992Y019362D01*
X008057Y019203D02*
X008290Y019203D01*
X008290Y019045D02*
X008029Y019045D01*
X007849Y018886D02*
X008290Y018886D01*
X008290Y018728D02*
X007827Y018728D01*
X007824Y018569D02*
X008290Y018569D01*
X008290Y018411D02*
X007726Y018411D01*
X007697Y018276D02*
X007587Y018322D01*
X007467Y018322D01*
X007373Y018283D01*
X007280Y018322D01*
X007160Y018322D01*
X007050Y018276D01*
X006966Y018192D01*
X006920Y018082D01*
X006920Y017962D01*
X006959Y017868D01*
X006920Y017775D01*
X006920Y017609D01*
X006889Y017578D01*
X006812Y017501D01*
X006767Y017391D01*
X006767Y017195D01*
X006812Y017085D01*
X006897Y017000D01*
X006920Y016991D01*
X006920Y016658D01*
X006966Y016548D01*
X007125Y016388D01*
X007127Y016386D01*
X007172Y016368D01*
X007237Y016341D01*
X007356Y016341D01*
X007446Y016378D01*
X007467Y016386D01*
X007498Y016417D01*
X007587Y016417D01*
X007697Y016463D01*
X007781Y016548D01*
X007827Y016658D01*
X007827Y016931D01*
X007788Y017024D01*
X007800Y017053D01*
X007827Y017118D01*
X007827Y017342D01*
X007927Y017384D01*
X008011Y017468D01*
X008057Y017579D01*
X008057Y017698D01*
X008011Y017808D01*
X007927Y017893D01*
X007904Y017902D01*
X007904Y018005D01*
X007858Y018115D01*
X007781Y018192D01*
X007697Y018276D01*
X007721Y018252D02*
X008290Y018252D01*
X008290Y018094D02*
X007867Y018094D01*
X007904Y017935D02*
X008290Y017935D01*
X008290Y017777D02*
X008024Y017777D01*
X008057Y017618D02*
X008290Y017618D01*
X008290Y017460D02*
X008003Y017460D01*
X007827Y017301D02*
X008290Y017301D01*
X008290Y017143D02*
X007827Y017143D01*
X007805Y016984D02*
X008290Y016984D01*
X008290Y016826D02*
X007827Y016826D01*
X007827Y016667D02*
X008290Y016667D01*
X008290Y016557D02*
X007145Y015412D01*
X007090Y015280D01*
X007090Y014057D01*
X006701Y013668D01*
X006389Y013668D01*
X006291Y013766D01*
X006189Y013808D01*
X006291Y013851D01*
X006443Y014002D01*
X006525Y014201D01*
X006525Y014416D01*
X006443Y014614D01*
X006291Y014766D01*
X006092Y014848D01*
X006085Y014848D01*
X006085Y017255D01*
X006030Y017387D01*
X005712Y017705D01*
X005979Y017705D01*
X006082Y017748D01*
X006160Y017827D01*
X006203Y017930D01*
X006203Y018437D01*
X006160Y018540D01*
X006082Y018619D01*
X005979Y018661D01*
X005756Y018661D01*
X004585Y019832D01*
X004585Y024501D01*
X004660Y024577D01*
X004703Y024680D01*
X004703Y025187D01*
X004660Y025290D01*
X004582Y025369D01*
X004479Y025411D01*
X004065Y025411D01*
X004065Y026414D01*
X005538Y027887D01*
X005546Y027883D01*
X005804Y027883D01*
X006043Y027982D01*
X006226Y028165D01*
X006239Y028197D01*
X006255Y028175D01*
X006317Y028114D01*
X006387Y028063D01*
X006464Y028024D01*
X006546Y027997D01*
X006632Y027983D01*
X006655Y027983D01*
X006655Y028513D01*
X006695Y028513D01*
X006695Y027983D01*
X006718Y027983D01*
X006804Y027997D01*
X006886Y028024D01*
X006963Y028063D01*
X007033Y028114D01*
X007095Y028175D01*
X007111Y028197D01*
X007124Y028165D01*
X007307Y027982D01*
X007546Y027883D01*
X007804Y027883D01*
X008043Y027982D01*
X008226Y028165D01*
X008325Y028404D01*
X008325Y028663D01*
X008226Y028902D01*
X008043Y029084D01*
X008238Y028872D02*
X012045Y028872D01*
X012045Y028713D02*
X008304Y028713D01*
X008325Y028555D02*
X012045Y028555D01*
X012045Y028396D02*
X008322Y028396D01*
X008256Y028238D02*
X012045Y028238D01*
X012045Y028079D02*
X008140Y028079D01*
X007895Y027921D02*
X012045Y027921D01*
X012045Y027762D02*
X005413Y027762D01*
X005255Y027604D02*
X012045Y027604D01*
X012045Y027445D02*
X005096Y027445D01*
X004938Y027287D02*
X012045Y027287D01*
X012045Y027128D02*
X010272Y027128D01*
X010285Y027115D02*
X010207Y027194D01*
X010104Y027236D01*
X009596Y027236D01*
X009493Y027194D01*
X009415Y027115D01*
X009372Y027012D01*
X009372Y026789D01*
X008345Y025762D01*
X008290Y025630D01*
X008290Y016557D01*
X008241Y016509D02*
X007743Y016509D01*
X007467Y016386D02*
X007467Y016386D01*
X007467Y016386D01*
X007380Y016350D02*
X008083Y016350D01*
X007924Y016192D02*
X006085Y016192D01*
X006085Y016350D02*
X007214Y016350D01*
X007127Y016386D02*
X007127Y016386D01*
X007004Y016509D02*
X006085Y016509D01*
X006085Y016667D02*
X006920Y016667D01*
X006920Y016826D02*
X006085Y016826D01*
X006085Y016984D02*
X006920Y016984D01*
X006788Y017143D02*
X006085Y017143D01*
X006066Y017301D02*
X006767Y017301D01*
X006795Y017460D02*
X005958Y017460D01*
X005799Y017618D02*
X006920Y017618D01*
X006921Y017777D02*
X006111Y017777D01*
X006203Y017935D02*
X006931Y017935D01*
X006925Y018094D02*
X006203Y018094D01*
X006203Y018252D02*
X007026Y018252D01*
X006867Y018411D02*
X006203Y018411D01*
X006131Y018569D02*
X006769Y018569D01*
X006780Y018728D02*
X005690Y018728D01*
X005531Y018886D02*
X006893Y018886D01*
X006920Y019045D02*
X005373Y019045D01*
X005214Y019203D02*
X006920Y019203D01*
X006920Y019362D02*
X005056Y019362D01*
X004897Y019520D02*
X006944Y019520D01*
X006920Y019679D02*
X004739Y019679D01*
X004585Y019837D02*
X006920Y019837D01*
X006934Y019996D02*
X004585Y019996D01*
X004585Y020154D02*
X006889Y020154D01*
X006778Y020313D02*
X004585Y020313D01*
X004585Y020471D02*
X006767Y020471D01*
X006805Y020630D02*
X004585Y020630D01*
X004585Y020788D02*
X006953Y020788D01*
X007017Y020947D02*
X004585Y020947D01*
X004585Y021105D02*
X006921Y021105D01*
X006920Y021264D02*
X004585Y021264D01*
X004585Y021898D02*
X008290Y021898D01*
X008290Y022056D02*
X004585Y022056D01*
X004585Y022215D02*
X008290Y022215D01*
X008290Y022373D02*
X004585Y022373D01*
X004585Y022532D02*
X008290Y022532D01*
X008290Y022690D02*
X004585Y022690D01*
X004585Y022849D02*
X008290Y022849D01*
X008290Y023007D02*
X004585Y023007D01*
X004585Y023166D02*
X008290Y023166D01*
X008290Y023324D02*
X004585Y023324D01*
X004585Y023483D02*
X008290Y023483D01*
X008290Y023641D02*
X004585Y023641D01*
X004585Y023800D02*
X008290Y023800D01*
X008290Y023958D02*
X004585Y023958D01*
X004585Y024117D02*
X008290Y024117D01*
X008290Y024275D02*
X004585Y024275D01*
X004585Y024434D02*
X008290Y024434D01*
X008290Y024592D02*
X004667Y024592D01*
X004703Y024751D02*
X008290Y024751D01*
X008290Y024909D02*
X004703Y024909D01*
X004703Y025068D02*
X008290Y025068D01*
X008290Y025226D02*
X004687Y025226D01*
X004543Y025385D02*
X008290Y025385D01*
X008290Y025543D02*
X004065Y025543D01*
X004065Y025702D02*
X008320Y025702D01*
X008443Y025860D02*
X004065Y025860D01*
X004065Y026019D02*
X008601Y026019D01*
X008760Y026177D02*
X004065Y026177D01*
X004065Y026336D02*
X008918Y026336D01*
X009077Y026494D02*
X004145Y026494D01*
X004304Y026653D02*
X009235Y026653D01*
X009372Y026811D02*
X004462Y026811D01*
X004621Y026970D02*
X009372Y026970D01*
X009428Y027128D02*
X004779Y027128D01*
X003705Y026563D02*
X003705Y022328D01*
X003440Y022063D01*
X002790Y022056D02*
X001680Y022056D01*
X001680Y021898D02*
X001640Y021898D01*
X001640Y021739D02*
X001680Y021739D01*
X001680Y021581D02*
X001640Y021581D01*
X001395Y021581D02*
X001205Y021581D01*
X001205Y021739D02*
X001216Y021739D01*
X001205Y022373D02*
X001205Y022373D01*
X001205Y022532D02*
X001369Y022532D01*
X001205Y022690D02*
X003255Y022690D01*
X003345Y022849D02*
X001205Y022849D01*
X001205Y023007D02*
X003345Y023007D01*
X003345Y023166D02*
X001205Y023166D01*
X001640Y022532D02*
X001680Y022532D01*
X001680Y022373D02*
X001640Y022373D01*
X001640Y022215D02*
X001680Y022215D01*
X001951Y022532D02*
X002989Y022532D01*
X002865Y022373D02*
X002115Y022373D01*
X002189Y022215D02*
X002799Y022215D01*
X002805Y021898D02*
X002185Y021898D01*
X002104Y021739D02*
X002871Y021739D01*
X003003Y021581D02*
X001925Y021581D01*
X003400Y023358D02*
X003400Y025333D01*
X003300Y025433D01*
X003150Y025433D01*
X003345Y025385D02*
X002486Y025385D01*
X002551Y025543D02*
X003345Y025543D01*
X003345Y025702D02*
X002582Y025702D01*
X002582Y025860D02*
X003345Y025860D01*
X003345Y026019D02*
X002524Y026019D01*
X002426Y026177D02*
X003345Y026177D01*
X003345Y026336D02*
X002225Y026336D01*
X002332Y025226D02*
X003345Y025226D01*
X003345Y025068D02*
X002354Y025068D01*
X002495Y024909D02*
X003345Y024909D01*
X003345Y024751D02*
X002560Y024751D01*
X002582Y024592D02*
X003345Y024592D01*
X003345Y024434D02*
X002581Y024434D01*
X002515Y024275D02*
X003345Y024275D01*
X003345Y024117D02*
X002403Y024117D01*
X004225Y024933D02*
X004225Y019683D01*
X005725Y018183D01*
X005225Y017683D02*
X005725Y017183D01*
X005725Y014308D01*
X006204Y013814D02*
X006847Y013814D01*
X007005Y013973D02*
X006413Y013973D01*
X006496Y014131D02*
X007090Y014131D01*
X007090Y014290D02*
X006525Y014290D01*
X006511Y014448D02*
X007090Y014448D01*
X007090Y014607D02*
X006446Y014607D01*
X006292Y014765D02*
X007090Y014765D01*
X007090Y014924D02*
X006085Y014924D01*
X006085Y015082D02*
X007090Y015082D01*
X007090Y015241D02*
X006085Y015241D01*
X006085Y015399D02*
X007139Y015399D01*
X007290Y015558D02*
X006085Y015558D01*
X006085Y015716D02*
X007449Y015716D01*
X007607Y015875D02*
X006085Y015875D01*
X006085Y016033D02*
X007766Y016033D01*
X007450Y015208D02*
X008650Y016408D01*
X008650Y025558D01*
X009850Y026758D01*
X010328Y026811D02*
X012045Y026811D01*
X012045Y026653D02*
X010328Y026653D01*
X010328Y026505D02*
X010328Y027012D01*
X010285Y027115D01*
X010328Y026970D02*
X012045Y026970D01*
X012045Y026494D02*
X010324Y026494D01*
X010328Y026505D02*
X010285Y026402D01*
X010207Y026323D01*
X010104Y026280D01*
X009881Y026280D01*
X009010Y025409D01*
X009010Y024077D01*
X009322Y024389D01*
X009322Y024434D02*
X009010Y024434D01*
X009010Y024592D02*
X009322Y024592D01*
X009400Y024751D02*
X009010Y024751D01*
X009010Y024909D02*
X012045Y024909D01*
X012045Y024751D02*
X010200Y024751D01*
X010278Y024592D02*
X012045Y024592D01*
X012045Y024434D02*
X010278Y024434D01*
X010278Y024275D02*
X012045Y024275D01*
X012045Y024117D02*
X011451Y024117D01*
X011609Y023958D02*
X012045Y023958D01*
X012045Y023800D02*
X011768Y023800D01*
X011926Y023641D02*
X012045Y023641D01*
X012038Y023483D02*
X012045Y023483D01*
X011700Y023358D02*
X011200Y023858D01*
X010200Y023858D01*
X009900Y023558D01*
X009208Y024275D02*
X009010Y024275D01*
X009010Y024117D02*
X009049Y024117D01*
X009010Y025068D02*
X012045Y025068D01*
X012045Y025226D02*
X009010Y025226D01*
X009010Y025385D02*
X012045Y025385D01*
X012045Y025543D02*
X009144Y025543D01*
X009303Y025702D02*
X012045Y025702D01*
X012045Y025860D02*
X009461Y025860D01*
X009620Y026019D02*
X012045Y026019D01*
X012045Y026177D02*
X009778Y026177D01*
X010220Y026336D02*
X012045Y026336D01*
X011700Y023358D02*
X011700Y010858D01*
X011150Y010308D01*
X008725Y010308D01*
X008725Y011308D02*
X010650Y011308D01*
X011200Y011858D01*
X011200Y020858D01*
X010700Y021358D01*
X010150Y021358D01*
X009800Y021008D01*
X007935Y021075D02*
X007935Y021075D01*
X009900Y018858D02*
X009850Y018808D01*
X009900Y018858D02*
X010200Y018858D01*
X010700Y018358D01*
X010700Y012858D01*
X010150Y012308D01*
X008725Y012308D01*
X007979Y012071D02*
X007522Y012071D01*
X007680Y012229D02*
X007925Y012229D01*
X007925Y012388D02*
X007839Y012388D01*
X006850Y013308D02*
X007450Y013908D01*
X007450Y015208D01*
X006850Y013308D02*
X005725Y013308D01*
X004900Y013408D02*
X004900Y014658D01*
X004700Y014858D01*
X004408Y014858D01*
X003935Y015173D02*
X003925Y015183D01*
X003725Y015183D01*
X003300Y014758D01*
X003300Y012883D01*
X003755Y013193D02*
X003735Y013240D01*
X003660Y013316D01*
X003660Y014076D01*
X003829Y014006D01*
X004030Y014006D01*
X004034Y013999D01*
X004074Y013943D01*
X004123Y013895D01*
X004179Y013854D01*
X004240Y013823D01*
X004305Y013802D01*
X004373Y013791D01*
X004408Y013791D01*
X004442Y013791D01*
X004510Y013802D01*
X004540Y013811D01*
X004540Y013557D01*
X004319Y013336D01*
X003946Y013336D01*
X003843Y013294D01*
X003765Y013215D01*
X003755Y013193D01*
X003660Y013339D02*
X004321Y013339D01*
X004480Y013497D02*
X003660Y013497D01*
X003660Y013656D02*
X004540Y013656D01*
X004408Y013791D02*
X004408Y014228D01*
X004408Y014228D01*
X004408Y013791D01*
X004408Y013814D02*
X004408Y013814D01*
X004266Y013814D02*
X003660Y013814D01*
X003660Y013973D02*
X004053Y013973D01*
X004408Y013973D02*
X004408Y013973D01*
X004408Y014131D02*
X004408Y014131D01*
X004900Y013408D02*
X004350Y012858D01*
X004200Y012858D01*
X002900Y010308D02*
X001575Y011633D01*
X001575Y016858D01*
X001825Y017108D01*
X002150Y017108D01*
X002225Y017183D01*
X001725Y017683D02*
X005225Y017683D01*
X004975Y017133D02*
X004825Y017133D01*
X004450Y016758D01*
X004450Y015530D01*
X004408Y015488D01*
X001725Y017683D02*
X001225Y017183D01*
X001225Y006408D01*
X002525Y005108D01*
X003425Y004583D02*
X003650Y004808D01*
X008075Y004808D01*
X008575Y004308D01*
X008725Y004308D01*
X008725Y003308D02*
X007150Y003308D01*
X006700Y002858D01*
X007250Y001308D02*
X005725Y001308D01*
X007250Y001308D02*
X007700Y000858D01*
X010200Y000858D01*
X011200Y001858D01*
X011200Y008358D01*
X010624Y008425D02*
X010259Y008425D01*
X008210Y007950D02*
X007618Y007950D01*
X007776Y007791D02*
X008220Y007791D01*
X008073Y008108D02*
X007459Y008108D01*
X007301Y008267D02*
X008026Y008267D01*
X008040Y008425D02*
X007142Y008425D01*
X006984Y008584D02*
X008121Y008584D01*
X006750Y008308D02*
X005725Y008308D01*
X005302Y007791D02*
X005085Y007791D01*
X005085Y007633D02*
X005167Y007633D01*
X005725Y007633D02*
X005725Y007633D01*
X005725Y007474D02*
X005725Y007474D01*
X005725Y007316D02*
X005725Y007316D01*
X005725Y007308D02*
X005725Y007308D01*
X005725Y007157D02*
X005725Y007157D01*
X005725Y006999D02*
X005725Y006999D01*
X005725Y006308D02*
X005600Y006308D01*
X004725Y007183D01*
X004725Y008558D01*
X003825Y009183D01*
X002950Y008308D01*
X002300Y008308D01*
X002300Y007208D02*
X003800Y007208D01*
X003825Y007183D01*
X003825Y007083D01*
X004225Y006683D01*
X004350Y006683D01*
X005725Y005308D01*
X006460Y005572D02*
X007990Y005572D01*
X007925Y005414D02*
X006525Y005414D01*
X006525Y005255D02*
X007925Y005255D01*
X005725Y010308D02*
X002900Y010308D01*
X001309Y017777D02*
X001205Y017777D01*
X001205Y017935D02*
X001468Y017935D01*
X003705Y026563D02*
X005675Y028533D01*
X006140Y028079D02*
X006364Y028079D01*
X006655Y028079D02*
X006695Y028079D01*
X006695Y028238D02*
X006655Y028238D01*
X006655Y028396D02*
X006695Y028396D01*
X006695Y028555D02*
X006655Y028555D01*
X006655Y028713D02*
X006695Y028713D01*
X006695Y028872D02*
X006655Y028872D01*
X006655Y029030D02*
X006695Y029030D01*
X006911Y029030D02*
X007253Y029030D01*
X007112Y028872D02*
X007109Y028872D01*
X006439Y029030D02*
X006097Y029030D01*
X006238Y028872D02*
X006241Y028872D01*
X005895Y027921D02*
X007455Y027921D01*
X007210Y028079D02*
X006986Y028079D01*
D19*
X003425Y004583D02*
X002050Y004583D01*
X001550Y004083D01*
X002075Y003583D02*
X003400Y003583D01*
X002075Y003583D02*
X001575Y003083D01*
X001550Y003083D01*
D20*
X009850Y018808D03*
M02*
