G75*
G70*
%OFA0B0*%
%FSLAX24Y24*%
%IPPOS*%
%LPD*%
%AMOC8*
5,1,8,0,0,1.08239X$1,22.5*
%
%ADD10R,0.0217X0.0472*%
%ADD11R,0.0472X0.0217*%
%ADD12R,0.0551X0.0472*%
%ADD13R,0.0630X0.0709*%
%ADD14R,0.0500X0.0579*%
%ADD15R,0.0315X0.0394*%
%ADD16R,0.0591X0.0276*%
%ADD17R,0.0709X0.0630*%
D10*
X006051Y019896D03*
X006799Y019896D03*
X006799Y020920D03*
X006425Y020920D03*
X006051Y020920D03*
D11*
X007538Y018157D03*
X007538Y017783D03*
X007538Y017409D03*
X008562Y017409D03*
X008562Y018157D03*
D12*
X011775Y017883D03*
X011775Y019064D03*
X011775Y020303D03*
X011775Y021484D03*
X011775Y022723D03*
X011775Y023904D03*
X011775Y025143D03*
X011775Y026324D03*
X011775Y027563D03*
X011775Y028744D03*
X007550Y024474D03*
X007550Y023293D03*
X011775Y016644D03*
X011775Y015463D03*
X011775Y014224D03*
X011775Y013043D03*
X011775Y011804D03*
X011775Y010623D03*
X011775Y009384D03*
X011775Y008203D03*
X011775Y006964D03*
X011775Y005783D03*
X011775Y004544D03*
X011775Y003363D03*
X011775Y002124D03*
X011775Y000943D03*
D13*
X003649Y001233D03*
X004751Y001233D03*
X009874Y000983D03*
X010976Y000983D03*
X010946Y003333D03*
X009844Y003333D03*
X009834Y005758D03*
X010936Y005758D03*
X010936Y008158D03*
X009834Y008158D03*
X009854Y010558D03*
X010956Y010558D03*
X010976Y012958D03*
X009874Y012958D03*
X009844Y015383D03*
X010946Y015383D03*
X008601Y016408D03*
X007499Y016408D03*
X006726Y015658D03*
X005624Y015658D03*
X004776Y018233D03*
X003674Y018233D03*
X007499Y019283D03*
X008601Y019283D03*
X008626Y020383D03*
X007524Y020383D03*
X007499Y021833D03*
X008601Y021833D03*
X009854Y022758D03*
X010956Y022758D03*
X010936Y020258D03*
X009834Y020258D03*
X009864Y017858D03*
X010966Y017858D03*
X004701Y012158D03*
X004701Y011183D03*
X003599Y011183D03*
X002651Y011183D03*
X001549Y011183D03*
X001549Y012183D03*
X002651Y012183D03*
X003599Y012158D03*
X004949Y024233D03*
X006051Y024233D03*
X007524Y025858D03*
X008626Y025858D03*
X009824Y025158D03*
X010926Y025158D03*
X010946Y027558D03*
X009844Y027558D03*
D14*
X006396Y022558D03*
X004704Y022558D03*
D15*
X002358Y023524D03*
X001492Y023524D03*
X001492Y026792D03*
X002358Y026792D03*
D16*
X002811Y026044D03*
X002811Y024863D03*
X002811Y024273D03*
D17*
X001600Y009360D03*
X001600Y008257D03*
X001575Y007210D03*
X001575Y006107D03*
M02*
