G75*
G70*
%OFA0B0*%
%FSLAX24Y24*%
%IPPOS*%
%LPD*%
%AMOC8*
5,1,8,0,0,1.08239X$1,22.5*
%
%ADD10C,0.0434*%
%ADD11C,0.0600*%
%ADD12C,0.0820*%
%ADD13OC8,0.0820*%
%ADD14C,0.0595*%
%ADD15C,0.1202*%
%ADD16C,0.0730*%
%ADD17R,0.0476X0.0476*%
%ADD18R,0.0490X0.0490*%
D10*
X001925Y024568D03*
X001925Y025749D03*
D11*
X005465Y014308D02*
X005985Y014308D01*
X005985Y013308D02*
X005465Y013308D01*
X005465Y012308D02*
X005985Y012308D01*
X005985Y011308D02*
X005465Y011308D01*
X005465Y010308D02*
X005985Y010308D01*
X005985Y009308D02*
X005465Y009308D01*
X005465Y008308D02*
X005985Y008308D01*
X005985Y007308D02*
X005465Y007308D01*
X005465Y006308D02*
X005985Y006308D01*
X005985Y005308D02*
X005465Y005308D01*
X005465Y004308D02*
X005985Y004308D01*
X005985Y003308D02*
X005465Y003308D01*
X005465Y002308D02*
X005985Y002308D01*
X005985Y001308D02*
X005465Y001308D01*
X008465Y001308D02*
X008985Y001308D01*
X008985Y002308D02*
X008465Y002308D01*
X008465Y003308D02*
X008985Y003308D01*
X008985Y004308D02*
X008465Y004308D01*
X008465Y005308D02*
X008985Y005308D01*
X008985Y006308D02*
X008465Y006308D01*
X008465Y007308D02*
X008985Y007308D01*
X008985Y008308D02*
X008465Y008308D01*
X008465Y009308D02*
X008985Y009308D01*
X008985Y010308D02*
X008465Y010308D01*
X008465Y011308D02*
X008985Y011308D01*
X008985Y012308D02*
X008465Y012308D01*
X008465Y013308D02*
X008985Y013308D01*
X008985Y014308D02*
X008465Y014308D01*
D12*
X003440Y019503D03*
X001660Y019503D03*
X001660Y022063D03*
X003440Y022063D03*
X002800Y028533D03*
X001800Y028533D03*
X005675Y028533D03*
X006675Y028533D03*
X007675Y028533D03*
X002525Y005108D03*
D13*
X001550Y001083D03*
X002550Y001083D03*
X002550Y002083D03*
X001550Y002083D03*
X001550Y003083D03*
X002550Y003083D03*
X002550Y004083D03*
X001550Y004083D03*
D14*
X004408Y014228D03*
X003935Y014543D03*
X004408Y014858D03*
X003935Y015173D03*
X004408Y015488D03*
D15*
X002400Y016295D03*
X002400Y013421D03*
D16*
X003825Y009183D03*
X003825Y007183D03*
D17*
X002300Y007208D03*
X002300Y008308D03*
X003300Y012883D03*
X004200Y012858D03*
X004975Y017133D03*
X005725Y018183D03*
X002225Y018183D03*
X002225Y017183D03*
X009800Y021008D03*
X009900Y023558D03*
X009800Y024358D03*
X009850Y026758D03*
X004225Y024933D03*
X003150Y025433D03*
X009900Y008858D03*
X009900Y006608D03*
D18*
X009850Y018808D03*
M02*
